<?xml version="1.0" encoding="UTF-8" standalone="no"?>
<!-- Created with Inkscape (http://www.inkscape.org/) -->

<svg
   width="210mm"
   height="297mm"
   viewBox="0 0 210 297"
   version="1.1"
   id="svg5"
   inkscape:version="1.2.1 (9c6d41e410, 2022-07-14)"
   sodipodi:docname="13.2.svg"
   xmlns:inkscape="http://www.inkscape.org/namespaces/inkscape"
   xmlns:sodipodi="http://sodipodi.sourceforge.net/DTD/sodipodi-0.dtd"
   xmlns:xlink="http://www.w3.org/1999/xlink"
   xmlns="http://www.w3.org/2000/svg"
   xmlns:svg="http://www.w3.org/2000/svg">
  <sodipodi:namedview
     id="namedview7"
     pagecolor="#eeeeee"
     bordercolor="#c1c1c1"
     borderopacity="0.23137255"
     inkscape:showpageshadow="0"
     inkscape:pageopacity="0"
     inkscape:pagecheckerboard="0"
     inkscape:deskcolor="#555555"
     inkscape:document-units="mm"
     showgrid="false"
     inkscape:zoom="0.93539564"
     inkscape:cx="202.05354"
     inkscape:cy="889.4632"
     inkscape:window-width="1366"
     inkscape:window-height="697"
     inkscape:window-x="-8"
     inkscape:window-y="-8"
     inkscape:window-maximized="1"
     inkscape:current-layer="layer1" />
  <defs
     id="defs2">
    <linearGradient
       id="linearGradient1249">
      <stop
         style="stop-color:#000000;stop-opacity:1;"
         offset="0"
         id="stop1247" />
    </linearGradient>
    <linearGradient
       id="linearGradient1243"
       inkscape:swatch="solid">
      <stop
         style="stop-color:#000000;stop-opacity:1;"
         offset="0"
         id="stop1241" />
    </linearGradient>
    <linearGradient
       id="linearGradient1233"
       inkscape:swatch="solid">
      <stop
         style="stop-color:#000000;stop-opacity:1;"
         offset="0"
         id="stop1231" />
    </linearGradient>
    <inkscape:perspective
       sodipodi:type="inkscape:persp3d"
       inkscape:vp_x="16.567005 : 97.162366 : 1"
       inkscape:vp_y="210.91535 : 977.50435 : 0"
       inkscape:vp_z="170.20892 : 97.233358 : 1"
       inkscape:persp3d-origin="153.01501 : 138.87762 : 1"
       id="perspective549" />
    <inkscape:perspective
       sodipodi:type="inkscape:persp3d"
       inkscape:vp_x="51.762856 : 135.48857 : 1"
       inkscape:vp_y="0 : 1000 : 0"
       inkscape:vp_z="261.76287 : 135.48857 : 1"
       inkscape:persp3d-origin="156.76287 : 85.988573 : 1"
       id="perspective353" />
    <linearGradient
       id="linearGradient2452"
       inkscape:swatch="solid">
      <stop
         style="stop-color:#07dd00;stop-opacity:1;"
         offset="0"
         id="stop2450" />
    </linearGradient>
    <linearGradient
       id="linearGradient2446"
       inkscape:swatch="solid">
      <stop
         style="stop-color:#ff0909;stop-opacity:1;"
         offset="0"
         id="stop2444" />
    </linearGradient>
    <inkscape:path-effect
       effect="spiro"
       id="path-effect458"
       is_visible="true"
       lpeversion="1" />
    <inkscape:path-effect
       effect="bspline"
       id="path-effect450"
       is_visible="true"
       lpeversion="1"
       weight="33.333333"
       steps="2"
       helper_size="0"
       apply_no_weight="true"
       apply_with_weight="true"
       only_selected="false" />
    <inkscape:path-effect
       effect="spiro"
       id="path-effect4780"
       is_visible="true"
       lpeversion="1" />
    <inkscape:path-effect
       effect="spiro"
       id="path-effect4655"
       is_visible="true"
       lpeversion="1" />
    <inkscape:path-effect
       effect="spiro"
       id="path-effect4647"
       is_visible="true"
       lpeversion="1" />
    <inkscape:path-effect
       effect="spiro"
       id="path-effect4393"
       is_visible="true"
       lpeversion="1" />
    <linearGradient
       id="linearGradient1014"
       inkscape:swatch="solid">
      <stop
         style="stop-color:#000000;stop-opacity:1;"
         offset="0"
         id="stop1012" />
    </linearGradient>
    <linearGradient
       inkscape:collect="always"
       xlink:href="#linearGradient1014"
       id="linearGradient1016"
       x1="44.386166"
       y1="31.001581"
       x2="108.42162"
       y2="31.001581"
       gradientUnits="userSpaceOnUse" />
    <filter
       inkscape:collect="always"
       style="color-interpolation-filters:sRGB"
       id="filter4908"
       x="-0.2751116"
       y="-0.25902925"
       width="1.5502232"
       height="1.5180585">
      <feGaussianBlur
         inkscape:collect="always"
         stdDeviation="0.76431893"
         id="feGaussianBlur4910" />
    </filter>
    <filter
       inkscape:collect="always"
       style="color-interpolation-filters:sRGB"
       id="filter4908-9"
       x="-0.2751116"
       y="-0.25902925"
       width="1.5502232"
       height="1.5180585">
      <feGaussianBlur
         inkscape:collect="always"
         stdDeviation="0.76431893"
         id="feGaussianBlur4910-4" />
    </filter>
    <inkscape:path-effect
       effect="spiro"
       id="path-effect4780-9"
       is_visible="true"
       lpeversion="1" />
    <filter
       inkscape:collect="always"
       style="color-interpolation-filters:sRGB"
       id="filter4908-7"
       x="-0.2751116"
       y="-0.25902925"
       width="1.5502232"
       height="1.5180585">
      <feGaussianBlur
         inkscape:collect="always"
         stdDeviation="0.76431893"
         id="feGaussianBlur4910-3" />
    </filter>
    <inkscape:path-effect
       effect="spiro"
       id="path-effect4780-8"
       is_visible="true"
       lpeversion="1" />
    <linearGradient
       inkscape:collect="always"
       xlink:href="#linearGradient2446"
       id="linearGradient2448"
       x1="49.602528"
       y1="124.80637"
       x2="99.005047"
       y2="124.80637"
       gradientUnits="userSpaceOnUse"
       gradientTransform="matrix(1.4240695,0,0,1.4127736,-18.258411,-17.25408)" />
    <linearGradient
       inkscape:collect="always"
       xlink:href="#linearGradient2452"
       id="linearGradient2454"
       x1="49.602528"
       y1="124.80637"
       x2="99.005047"
       y2="124.80637"
       gradientUnits="userSpaceOnUse"
       gradientTransform="matrix(1.4240695,0,0,1.4127736,-18.258411,-17.25408)" />
    <linearGradient
       inkscape:collect="always"
       xlink:href="#linearGradient2452"
       id="linearGradient1251"
       x1="85.491341"
       y1="229.28262"
       x2="155.41396"
       y2="229.28262"
       gradientUnits="userSpaceOnUse" />
    <linearGradient
       inkscape:collect="always"
       xlink:href="#linearGradient1249"
       id="linearGradient1253"
       gradientUnits="userSpaceOnUse"
       x1="85.491337"
       y1="229.28263"
       x2="155.41395"
       y2="229.28263"
       gradientTransform="translate(-17.254286,-17.82)" />
    <linearGradient
       inkscape:collect="always"
       xlink:href="#linearGradient1249"
       id="linearGradient1255"
       gradientUnits="userSpaceOnUse"
       x1="85.491337"
       y1="229.28263"
       x2="155.41395"
       y2="229.28263"
       gradientTransform="translate(-17.254286,-17.82)" />
    <linearGradient
       inkscape:collect="always"
       xlink:href="#linearGradient1249"
       id="linearGradient1257"
       gradientUnits="userSpaceOnUse"
       x1="85.491337"
       y1="229.28263"
       x2="155.41395"
       y2="229.28263"
       gradientTransform="translate(-17.254286,-17.82)" />
    <linearGradient
       inkscape:collect="always"
       xlink:href="#linearGradient1249"
       id="linearGradient1259"
       gradientUnits="userSpaceOnUse"
       x1="85.491337"
       y1="229.28263"
       x2="155.41395"
       y2="229.28263"
       gradientTransform="translate(-17.254286,-17.82)" />
    <linearGradient
       inkscape:collect="always"
       xlink:href="#linearGradient1249"
       id="linearGradient1261"
       gradientUnits="userSpaceOnUse"
       x1="85.491337"
       y1="229.28263"
       x2="155.41395"
       y2="229.28263"
       gradientTransform="translate(-17.254286,-17.82)" />
    <linearGradient
       inkscape:collect="always"
       xlink:href="#linearGradient1249"
       id="linearGradient1263"
       gradientUnits="userSpaceOnUse"
       x1="85.491337"
       y1="229.28263"
       x2="155.41395"
       y2="229.28263"
       gradientTransform="translate(-17.254286,-17.82)" />
  </defs>
  <g
     inkscape:label="Layer 1"
     inkscape:groupmode="layer"
     id="layer1">
    <path
       sodipodi:type="star"
       style="fill:#ff0000;fill-rule:evenodd;stroke:url(#linearGradient1016);stroke-width:0.5;stroke-dasharray:none"
       id="path234"
       inkscape:flatsided="false"
       sodipodi:sides="10"
       sodipodi:cx="76.403893"
       sodipodi:cy="31.001581"
       sodipodi:r1="33.122074"
       sodipodi:r2="14.242492"
       sodipodi:arg1="0.92246434"
       sodipodi:arg2="1.2366236"
       inkscape:rounded="0.53"
       inkscape:randomized="0"
       d="M 96.404912,57.402926 C 87.928152,63.824714 91.121575,40.968186 81.075256,44.456206 71.028937,47.944226 87.69921,63.904201 77.066735,64.117022 66.434261,64.329843 82.452524,47.71557 72.274674,44.63236 62.096825,41.549149 66.202322,64.259581 57.475376,58.182145 48.74843,52.104709 71.473102,48.078779 65.051314,39.602019 58.629527,31.12526 48.602086,51.911535 45.114066,41.865216 41.626046,31.818897 62.377074,41.919078 62.164253,31.286604 61.951432,20.654129 41.621196,31.576598 44.704407,21.398748 47.787617,11.220899 58.638814,31.589265 64.71625,22.862319 70.793686,14.135373 47.926114,11.022024 56.402873,4.6002359 64.879633,-1.8215517 61.68621,21.034976 71.732529,17.546956 81.778848,14.058936 65.108575,-1.9010388 75.74105,-2.1138598 86.373524,-2.3266809 70.355261,14.287592 80.533111,17.370802 90.71096,20.454013 86.605463,-2.2564186 95.332409,3.8210173 104.05935,9.8984533 81.334683,13.924383 87.756471,22.401143 c 6.421787,8.47676 16.449229,-12.309516 19.937249,-2.263197 3.48802,10.046319 -17.263009,-0.05386 -17.050188,10.578613 0.212821,10.632474 20.543058,-0.289994 17.459848,9.887855 -3.08321,10.17785 -13.934409,-10.190517 -20.011845,-1.463571 -6.077436,8.726946 16.790135,11.840296 8.313377,18.262083 z"
       inkscape:transform-center-x="0.20483073"
       inkscape:transform-center-y="-2.9674391"
       transform="translate(-23.550235,81.137356)" />
    <path
       style="fill:#ffff00;fill-rule:evenodd;stroke-width:10.3314"
       id="path288"
       sodipodi:type="arc"
       sodipodi:cx="53.053673"
       sodipodi:cy="111.5389"
       sodipodi:rx="11.400581"
       sodipodi:ry="10.80055"
       sodipodi:start="0"
       sodipodi:end="6.1791829"
       sodipodi:open="true"
       sodipodi:arc-type="arc"
       d="m 64.454254,111.5389 a 11.400581,10.80055 0 0 1 -11.104193,10.7969 11.400581,10.80055 0 0 1 -11.681559,-10.23551 11.400581,10.80055 0 0 1 10.496806,-11.3291 11.400581,10.80055 0 0 1 12.227345,9.64645" />
    <path
       id="rect1072-1"
       style="opacity:0.87;fill:#ff0000;fill-rule:evenodd;stroke-width:0.499999;stroke-dasharray:none"
       d="m 132.30075,84.337723 -17.53846,16.959167 a 12.700647,12.100616 0 0 0 -5.50561,9.96632 l 0.0687,1.25626 a 12.700647,12.100616 0 0 0 13.62191,10.8076 12.700647,12.100616 0 0 0 5.45238,-1.64641 12.700647,17.700903 15.538039 0 1 -0.3514,2.39366 l -0.42581,1.78852 a 12.700647,17.700903 15.538039 0 1 -7.49464,11.48147 v 0.1173 H 143.729 v -0.0796 a 17.700903,12.700647 74.461961 0 1 -8.43618,-12.11916 l -0.42633,-1.78852 a 17.700903,12.700647 74.461961 0 1 -0.30851,-2.02365 12.700647,12.100616 0 0 0 7.64811,2.41278 12.700647,12.100616 0 0 0 0.93328,-0.0367 12.700647,12.100616 0 0 0 11.69386,-12.69277 12.700647,12.100616 0 0 0 -5.91178,-9.6082 z" />
    <path
       style="opacity:0.87;fill:#808000;fill-opacity:1;fill-rule:evenodd;stroke-width:0.458106;stroke-dasharray:none"
       id="path3943"
       sodipodi:type="arc"
       sodipodi:cx="176.85997"
       sodipodi:cy="145.59064"
       sodipodi:rx="7.8003979"
       sodipodi:ry="9.150466"
       sodipodi:start="0"
       sodipodi:end="6.1791829"
       sodipodi:open="true"
       sodipodi:arc-type="arc"
       d="m 184.66037,145.59064 a 7.8003979,9.150466 0 0 1 -7.59761,9.14737 7.8003979,9.150466 0 0 1 -7.99264,-8.67175 7.8003979,9.150466 0 0 1 7.18202,-9.59827 7.8003979,9.150466 0 0 1 8.36608,8.17269" />
    <path
       id="path4051"
       style="opacity:0.87;fill:#808000;fill-rule:evenodd;stroke-width:0.0432117"
       inkscape:transform-center-x="35.774189"
       inkscape:transform-center-y="22.197015"
       d="m 176.53007,155.8943 0.40291,-1.5634 0.63363,1.5633 z"
       sodipodi:nodetypes="cccc" />
    <rect
       style="opacity:0.87;fill:#000000;fill-opacity:1;fill-rule:evenodd;stroke-width:0.499999;stroke-dasharray:none"
       id="rect4285"
       width="1.1491089"
       height="0.38892749"
       x="176.43214"
       y="154.77589"
       ry="0.17678571" />
    <circle
       id="path4395"
       style="fill:#808000;stroke:#000000;stroke-width:0.264583"
       cx="176.60997"
       cy="161.24144"
       r="0.0015733086" />
    <path
       style="opacity:0.87;fill:#000000;fill-opacity:1;fill-rule:evenodd;stroke-width:0.499999;stroke-dasharray:none"
       id="path4458"
       d="m 176.66514,155.83293 c -0.062,0.17492 -0.11485,0.35288 -0.16456,0.53171 -0.0622,0.23857 -0.13067,0.47546 -0.19293,0.71398 -0.0655,0.27634 -0.11912,0.55443 -0.16007,0.83541 -0.0404,0.28658 -0.0582,0.57562 -0.0672,0.86468 0.003,0.28323 0.0697,0.56406 0.15343,0.83339 0.0163,0.0428 0.0325,0.0856 0.0488,0.12841 0.0418,0.10982 0.0452,0.12811 0.0978,0.23068 0.0427,0.0834 0.0937,0.16226 0.13733,0.24528 0.0771,0.1594 0.17514,0.30656 0.27323,0.45345 0.13892,0.19173 0.26594,0.39142 0.39709,0.5884 0.12379,0.15574 0.23954,0.31977 0.38198,0.45931 0.10353,0.0793 0.21137,0.15253 0.31323,0.23437 0.0982,0.088 0.21005,0.15561 0.32205,0.2239 0.12975,0.0787 0.0968,0.0596 0.32198,0.18336 0.021,0.0115 0.0846,0.0447 0.0642,0.0321 -0.29307,-0.18061 -0.0801,-0.0346 -0.0113,0.0241 0.11075,0.11251 0.21241,0.23327 0.30943,0.35767 0.0966,0.13168 0.15839,0.28155 0.19719,0.4391 0.0397,0.27312 -0.0374,0.40878 -0.18622,0.63057 -0.15816,0.19886 -0.35959,0.35461 -0.55088,0.51911 -0.14852,0.12772 -0.17027,0.15136 -0.31255,0.28566 -0.17049,0.17332 -0.35002,0.34024 -0.48499,0.54415 -0.0846,0.12786 -0.11318,0.19192 -0.18248,0.32639 -0.046,0.10852 -0.0766,0.16136 -0.0955,0.27636 -0.0347,0.21064 0.0465,0.42726 0.10315,0.62631 0.0262,0.0676 0.0489,0.13663 0.0787,0.20272 0.0649,0.14401 0.17921,0.34316 0.258,0.47494 0.20387,0.34098 0.42997,0.66754 0.65344,0.99575 0.40979,0.57828 0.80693,1.16836 1.26297,1.71209 0.20836,0.24844 0.28928,0.325 0.50561,0.54874 0.18887,0.20405 0.41762,0.36918 0.6024,0.57726 0.0457,0.0514 0.20397,0.25845 0.24196,0.30763 0.12983,0.20547 0.35642,0.48229 0.32742,0.74389 -0.005,0.0424 -0.0224,0.0822 -0.0336,0.12335 -0.0234,0.0396 -0.0419,0.0826 -0.0703,0.11877 -0.16835,0.21473 -0.48576,0.34504 -0.73036,0.44843 -0.17099,0.0709 -0.34588,0.13175 -0.51988,0.19475 0,0 0.19491,0.13132 0.19491,0.13132 v 0 c 0.17309,-0.0654 0.34753,-0.12714 0.51904,-0.19664 0.24998,-0.10651 0.56878,-0.23987 0.74148,-0.45902 0.0298,-0.0378 0.0494,-0.0825 0.0742,-0.12383 0.0123,-0.0433 0.0314,-0.0852 0.0369,-0.12988 0.0336,-0.26933 -0.19498,-0.54737 -0.32727,-0.75984 -0.0121,-0.0158 -0.21825,-0.28659 -0.23784,-0.30906 -0.18615,-0.21351 -0.42343,-0.37704 -0.61696,-0.58314 -0.22255,-0.22573 -0.30305,-0.29988 -0.51701,-0.55132 -0.46001,-0.54059 -0.86138,-1.12826 -1.26491,-1.71103 -0.21724,-0.32588 -0.43834,-0.6501 -0.6381,-0.98723 -0.0706,-0.11918 -0.19362,-0.33699 -0.25316,-0.46905 -0.0294,-0.0651 -0.0518,-0.13321 -0.0776,-0.19981 -0.0546,-0.1941 -0.13369,-0.40766 -0.10406,-0.61305 0.0165,-0.11455 0.0452,-0.16488 0.0893,-0.27368 0.0696,-0.13709 0.0933,-0.19376 0.18026,-0.32332 0.13521,-0.20144 0.31336,-0.36808 0.48076,-0.54181 0.15017,-0.14157 0.15522,-0.14974 0.31231,-0.28414 0.1936,-0.16562 0.39696,-0.32328 0.55886,-0.52197 0.0736,-0.10799 0.15313,-0.21865 0.189,-0.34675 0.027,-0.0966 0.0194,-0.20005 0.0122,-0.29838 -0.0374,-0.16012 -0.0985,-0.3128 -0.19301,-0.44847 -0.0965,-0.1262 -0.20004,-0.24641 -0.30858,-0.36247 -0.14514,-0.12891 -0.19889,-0.15188 -0.40291,-0.2673 -0.021,-0.0119 -0.0847,-0.0461 -0.0647,-0.0327 0.049,0.0327 0.10097,0.0606 0.15154,0.0908 0.0185,0.011 -0.0369,-0.0223 -0.0553,-0.0334 -0.11132,-0.0686 -0.22555,-0.13184 -0.32275,-0.22073 -0.1018,-0.0832 -0.20831,-0.15908 -0.31636,-0.23354 -0.1465,-0.13551 -0.25922,-0.30199 -0.38603,-0.45526 -0.13197,-0.19619 -0.25829,-0.39613 -0.39651,-0.5881 -0.0972,-0.14623 -0.19536,-0.29223 -0.27268,-0.45032 -0.0433,-0.0844 -0.0959,-0.16245 -0.14066,-0.24602 -0.0582,-0.10854 -0.0543,-0.11177 -0.1,-0.22955 -0.0165,-0.0425 -0.0332,-0.0849 -0.0498,-0.1273 -0.0869,-0.26623 -0.15049,-0.5442 -0.15511,-0.8253 0.007,-0.28893 0.0213,-0.578 0.0615,-0.8645 0.0413,-0.2797 0.10021,-0.55543 0.16278,-0.83105 0.0617,-0.23845 0.131,-0.4749 0.19345,-0.71317 0.0504,-0.17772 0.1026,-0.35531 0.17003,-0.52738 0,0 -0.21578,-0.11884 -0.21578,-0.11884 z" />
    <path
       style="opacity:0.65;mix-blend-mode:normal;fill:#e3dbdb;fill-opacity:1;fill-rule:evenodd;stroke-width:0.273339;stroke-dasharray:none;filter:url(#filter4908)"
       d="m 161.15894,66.748205 c 0.61007,-1.695714 1.50517,-3.336083 2.87737,-4.504289 0.64981,-0.55321 1.43289,-1.002198 2.28489,-1.051048 0.24601,-0.01411 0.49931,0.0069 0.72415,0.107729 0.16519,0.07408 0.31141,0.190716 0.41844,0.33673 0.10703,0.146014 0.17439,0.32119 0.19041,0.501521 0.016,0.18033 -0.0196,0.36528 -0.10364,0.525649 -0.084,0.160369 -0.21634,0.295403 -0.37609,0.380584 -0.17696,0.09436 -0.38091,0.126112 -0.58134,0.133163 -0.20042,0.0071 -0.40107,-0.0091 -0.60155,-0.0037 -0.52094,0.01404 -1.03369,0.175655 -1.48324,0.439235 -0.44955,0.263579 -0.83694,0.627091 -1.15149,1.042572 -0.62912,0.830961 -0.96083,1.85074 -1.16349,2.873098 -0.0255,0.128632 -0.0495,0.25873 -0.0998,0.379796 -0.0504,0.121066 -0.13029,0.234223 -0.24395,0.299621 -0.0767,0.04411 -0.1662,0.06465 -0.25459,0.06142 -0.0884,-0.0032 -0.17544,-0.02988 -0.25208,-0.07402 -0.15328,-0.08829 -0.26092,-0.244255 -0.31211,-0.413573 -0.0512,-0.169318 -0.0496,-0.351201 -0.0195,-0.52551 0.0301,-0.174309 0.0878,-0.342533 0.14764,-0.508975 z"
       id="path4778"
       inkscape:path-effect="#path-effect4780"
       inkscape:original-d="m 161.15894,66.748205 c -0.23044,-0.48692 1.91845,-3.002844 2.87737,-4.504289 0.95894,-1.501428 1.52347,-0.700681 2.28489,-1.051048 0.76142,-0.350367 0.48297,0.07183 0.72415,0.107729 0.24117,0.03589 0.0863,1.163002 0.12912,1.744484 0.0429,0.581477 -0.78839,0.08632 -1.18289,0.129464 -0.39451,0.04314 -2.53194,2.903286 -3.79822,4.354905 -1.26632,1.451598 -0.229,0.45296 -0.34379,0.679417 -0.11484,0.226428 -0.46022,-0.973768 -0.69063,-1.460662 z"
       transform="matrix(1.0663147,0,0,1.1653429,-0.4456034,67.334587)" />
    <path
       style="opacity:0.87;fill:#ff6600;fill-opacity:1;fill-rule:evenodd;stroke-width:0.458106;stroke-dasharray:none"
       id="path3943-4"
       sodipodi:type="arc"
       sodipodi:cx="163.13008"
       sodipodi:cy="143.49475"
       sodipodi:rx="7.8003979"
       sodipodi:ry="9.150466"
       sodipodi:start="0"
       sodipodi:end="6.1791829"
       sodipodi:open="true"
       sodipodi:arc-type="arc"
       d="m 170.93048,143.49475 a 7.8003979,9.150466 0 0 1 -7.59761,9.14737 7.8003979,9.150466 0 0 1 -7.99264,-8.67175 7.8003979,9.150466 0 0 1 7.18202,-9.59826 7.8003979,9.150466 0 0 1 8.36608,8.17269" />
    <path
       id="path4051-7"
       style="opacity:0.87;fill:#ff7f2a;fill-rule:evenodd;stroke-width:0.0432117"
       inkscape:transform-center-x="35.774189"
       inkscape:transform-center-y="22.197015"
       d="m 162.80028,153.79841 0.40291,-1.5634 0.63363,1.5633 z"
       sodipodi:nodetypes="cccc" />
    <rect
       style="opacity:0.87;fill:#000000;fill-opacity:1;fill-rule:evenodd;stroke-width:0.499999;stroke-dasharray:none"
       id="rect4285-7"
       width="1.1491089"
       height="0.38892749"
       x="162.70226"
       y="152.68001"
       ry="0.17678571" />
    <circle
       id="path4395-9"
       style="fill:#808000;stroke:#000000;stroke-width:0.264583"
       cx="162.88008"
       cy="159.14555"
       r="0.0015733086" />
    <path
       style="opacity:0.87;fill:#000000;fill-opacity:1;fill-rule:evenodd;stroke-width:0.499999;stroke-dasharray:none"
       id="path4458-4"
       d="m 162.93535,153.73704 c -0.062,0.17492 -0.11485,0.35288 -0.16456,0.53171 -0.0622,0.23857 -0.13067,0.47546 -0.19293,0.71398 -0.0655,0.27634 -0.11912,0.55443 -0.16007,0.83541 -0.0404,0.28658 -0.0582,0.57562 -0.0672,0.86468 0.003,0.28323 0.0697,0.56406 0.15343,0.83339 0.0163,0.0428 0.0325,0.0856 0.0488,0.12841 0.0418,0.10982 0.0452,0.12811 0.0978,0.23068 0.0427,0.0834 0.0937,0.16226 0.13733,0.24528 0.0771,0.1594 0.17514,0.30656 0.27323,0.45345 0.13892,0.19173 0.26594,0.39142 0.39709,0.5884 0.12379,0.15574 0.23954,0.31977 0.38198,0.45931 0.10353,0.0794 0.21137,0.15253 0.31323,0.23437 0.0982,0.088 0.21005,0.15561 0.32205,0.2239 0.12975,0.0787 0.0968,0.0596 0.32198,0.18336 0.021,0.0115 0.0846,0.0447 0.0642,0.0321 -0.29307,-0.18061 -0.0801,-0.0346 -0.0113,0.0241 0.11075,0.11251 0.21241,0.23327 0.30943,0.35767 0.0966,0.13168 0.15839,0.28155 0.19719,0.4391 0.0397,0.27312 -0.0374,0.40878 -0.18622,0.63057 -0.15816,0.19886 -0.35959,0.35461 -0.55088,0.51911 -0.14852,0.12772 -0.17027,0.15136 -0.31255,0.28566 -0.17049,0.17332 -0.35002,0.34024 -0.48499,0.54415 -0.0846,0.12786 -0.11318,0.19192 -0.18248,0.32639 -0.046,0.10852 -0.0766,0.16136 -0.0955,0.27636 -0.0347,0.21064 0.0465,0.42726 0.10315,0.62631 0.0262,0.0676 0.0489,0.13663 0.0787,0.20272 0.0649,0.14401 0.17921,0.34316 0.258,0.47494 0.20387,0.34098 0.42997,0.66754 0.65344,0.99575 0.40979,0.57828 0.80693,1.16836 1.26297,1.71209 0.20836,0.24844 0.28928,0.325 0.50561,0.54874 0.18887,0.20405 0.41762,0.36918 0.6024,0.57726 0.0457,0.0514 0.20397,0.25845 0.24196,0.30763 0.12983,0.20547 0.35642,0.48229 0.32742,0.74389 -0.005,0.0424 -0.0224,0.0822 -0.0336,0.12335 -0.0234,0.0396 -0.0419,0.0826 -0.0703,0.11877 -0.16835,0.21473 -0.48576,0.34504 -0.73036,0.44843 -0.17099,0.0709 -0.34588,0.13175 -0.51988,0.19475 0,0 0.19491,0.13132 0.19491,0.13132 v 0 c 0.17309,-0.0654 0.34753,-0.12714 0.51904,-0.19664 0.24998,-0.10651 0.56878,-0.23987 0.74148,-0.45902 0.0298,-0.0378 0.0494,-0.0825 0.0742,-0.12383 0.0123,-0.0433 0.0314,-0.0852 0.0369,-0.12988 0.0336,-0.26933 -0.19498,-0.54737 -0.32727,-0.75984 -0.0121,-0.0158 -0.21825,-0.28659 -0.23784,-0.30906 -0.18615,-0.21351 -0.42343,-0.37704 -0.61696,-0.58314 -0.22255,-0.22573 -0.30305,-0.29988 -0.51701,-0.55132 -0.46001,-0.54059 -0.86138,-1.12826 -1.26491,-1.71103 -0.21724,-0.32588 -0.43834,-0.6501 -0.6381,-0.98723 -0.0706,-0.11918 -0.19362,-0.33699 -0.25316,-0.46905 -0.0294,-0.0651 -0.0518,-0.13321 -0.0776,-0.19981 -0.0546,-0.1941 -0.13369,-0.40766 -0.10406,-0.61305 0.0165,-0.11455 0.0452,-0.16488 0.0893,-0.27368 0.0696,-0.13709 0.0933,-0.19376 0.18026,-0.32332 0.13521,-0.20144 0.31336,-0.36808 0.48076,-0.54181 0.15017,-0.14157 0.15522,-0.14974 0.31231,-0.28414 0.1936,-0.16562 0.39696,-0.32328 0.55886,-0.52197 0.0736,-0.10799 0.15313,-0.21865 0.189,-0.34675 0.027,-0.0966 0.0194,-0.20005 0.0122,-0.29838 -0.0374,-0.16012 -0.0985,-0.3128 -0.19301,-0.44847 -0.0965,-0.1262 -0.20004,-0.24641 -0.30858,-0.36247 -0.14514,-0.12891 -0.19889,-0.15188 -0.40291,-0.2673 -0.021,-0.0119 -0.0847,-0.0461 -0.0647,-0.0327 0.049,0.0327 0.10097,0.0606 0.15154,0.0908 0.0185,0.011 -0.0369,-0.0223 -0.0553,-0.0334 -0.11132,-0.0686 -0.22555,-0.13184 -0.32275,-0.22073 -0.1018,-0.0832 -0.20831,-0.15908 -0.31636,-0.23354 -0.1465,-0.13551 -0.25922,-0.30199 -0.38603,-0.45526 -0.13197,-0.19619 -0.25829,-0.39613 -0.39651,-0.5881 -0.0972,-0.14623 -0.19536,-0.29223 -0.27268,-0.45032 -0.0433,-0.0844 -0.0959,-0.16245 -0.14066,-0.24602 -0.0582,-0.10854 -0.0543,-0.11177 -0.1,-0.22955 -0.0165,-0.0425 -0.0332,-0.0849 -0.0498,-0.1273 -0.0869,-0.26623 -0.15049,-0.5442 -0.15511,-0.8253 0.007,-0.28893 0.0213,-0.578 0.0615,-0.8645 0.0413,-0.2797 0.10021,-0.55543 0.16278,-0.83105 0.0617,-0.23845 0.131,-0.4749 0.19345,-0.71317 0.0504,-0.17772 0.1026,-0.35531 0.17003,-0.52738 0,0 -0.21578,-0.11884 -0.21578,-0.11884 z" />
    <path
       style="opacity:0.65;mix-blend-mode:normal;fill:#e3dbdb;fill-opacity:1;fill-rule:evenodd;stroke-width:0.273339;stroke-dasharray:none;filter:url(#filter4908-9)"
       d="m 161.15894,66.748205 c 0.61007,-1.695714 1.50517,-3.336083 2.87737,-4.504289 0.64981,-0.55321 1.43289,-1.002198 2.28489,-1.051048 0.24601,-0.01411 0.49931,0.0069 0.72415,0.107729 0.16519,0.07408 0.31141,0.190716 0.41844,0.33673 0.10703,0.146014 0.17439,0.32119 0.19041,0.501521 0.016,0.18033 -0.0196,0.36528 -0.10364,0.525649 -0.084,0.160369 -0.21634,0.295403 -0.37609,0.380584 -0.17696,0.09436 -0.38091,0.126112 -0.58134,0.133163 -0.20042,0.0071 -0.40107,-0.0091 -0.60155,-0.0037 -0.52094,0.01404 -1.03369,0.175655 -1.48324,0.439235 -0.44955,0.263579 -0.83694,0.627091 -1.15149,1.042572 -0.62912,0.830961 -0.96083,1.85074 -1.16349,2.873098 -0.0255,0.128632 -0.0495,0.25873 -0.0998,0.379796 -0.0504,0.121066 -0.13029,0.234223 -0.24395,0.299621 -0.0767,0.04411 -0.1662,0.06465 -0.25459,0.06142 -0.0884,-0.0032 -0.17544,-0.02988 -0.25208,-0.07402 -0.15328,-0.08829 -0.26092,-0.244255 -0.31211,-0.413573 -0.0512,-0.169318 -0.0496,-0.351201 -0.0195,-0.52551 0.0301,-0.174309 0.0878,-0.342533 0.14764,-0.508975 z"
       id="path4778-5"
       inkscape:path-effect="#path-effect4780-9"
       inkscape:original-d="m 161.15894,66.748205 c -0.23044,-0.48692 1.91845,-3.002844 2.87737,-4.504289 0.95894,-1.501428 1.52347,-0.700681 2.28489,-1.051048 0.76142,-0.350367 0.48297,0.07183 0.72415,0.107729 0.24117,0.03589 0.0863,1.163002 0.12912,1.744484 0.0429,0.581477 -0.78839,0.08632 -1.18289,0.129464 -0.39451,0.04314 -2.53194,2.903286 -3.79822,4.354905 -1.26632,1.451598 -0.229,0.45296 -0.34379,0.679417 -0.11484,0.226428 -0.46022,-0.973768 -0.69063,-1.460662 z"
       transform="matrix(1.0663147,0,0,1.1653429,-14.175427,65.238697)" />
    <path
       style="opacity:0.87;fill:#0000ff;fill-opacity:1;fill-rule:evenodd;stroke-width:0.458106;stroke-dasharray:none"
       id="path3943-9"
       sodipodi:type="arc"
       sodipodi:cx="169.65962"
       sodipodi:cy="126.61045"
       sodipodi:rx="7.8003979"
       sodipodi:ry="9.150466"
       sodipodi:start="0"
       sodipodi:end="6.1791829"
       sodipodi:open="true"
       sodipodi:arc-type="arc"
       d="m 177.46002,126.61045 a 7.8003979,9.150466 0 0 1 -7.59761,9.14737 7.8003979,9.150466 0 0 1 -7.99264,-8.67175 7.8003979,9.150466 0 0 1 7.18202,-9.59826 7.8003979,9.150466 0 0 1 8.36608,8.17268" />
    <path
       id="path4051-77"
       style="opacity:0.87;fill:#0000ff;fill-rule:evenodd;stroke-width:0.0432117"
       inkscape:transform-center-x="35.774189"
       inkscape:transform-center-y="22.197015"
       d="m 169.32972,136.91411 0.40291,-1.5634 0.63363,1.5633 z"
       sodipodi:nodetypes="cccc" />
    <rect
       style="opacity:0.87;fill:#000000;fill-opacity:1;fill-rule:evenodd;stroke-width:0.499999;stroke-dasharray:none"
       id="rect4285-0"
       width="1.1491089"
       height="0.38892749"
       x="169.2318"
       y="135.7957"
       ry="0.17678571" />
    <circle
       id="path4395-8"
       style="fill:#808000;stroke:#000000;stroke-width:0.264583"
       cx="169.40962"
       cy="142.26125"
       r="0.0015733086" />
    <path
       style="opacity:0.65;mix-blend-mode:normal;fill:#e3dbdb;fill-opacity:1;fill-rule:evenodd;stroke-width:0.273339;stroke-dasharray:none;filter:url(#filter4908-7)"
       d="m 161.15894,66.748205 c 0.61007,-1.695714 1.50517,-3.336083 2.87737,-4.504289 0.64981,-0.55321 1.43289,-1.002198 2.28489,-1.051048 0.24601,-0.01411 0.49931,0.0069 0.72415,0.107729 0.16519,0.07408 0.31141,0.190716 0.41844,0.33673 0.10703,0.146014 0.17439,0.32119 0.19041,0.501521 0.016,0.18033 -0.0196,0.36528 -0.10364,0.525649 -0.084,0.160369 -0.21634,0.295403 -0.37609,0.380584 -0.17696,0.09436 -0.38091,0.126112 -0.58134,0.133163 -0.20042,0.0071 -0.40107,-0.0091 -0.60155,-0.0037 -0.52094,0.01404 -1.03369,0.175655 -1.48324,0.439235 -0.44955,0.263579 -0.83694,0.627091 -1.15149,1.042572 -0.62912,0.830961 -0.96083,1.85074 -1.16349,2.873098 -0.0255,0.128632 -0.0495,0.25873 -0.0998,0.379796 -0.0504,0.121066 -0.13029,0.234223 -0.24395,0.299621 -0.0767,0.04411 -0.1662,0.06465 -0.25459,0.06142 -0.0884,-0.0032 -0.17544,-0.02988 -0.25208,-0.07402 -0.15328,-0.08829 -0.26092,-0.244255 -0.31211,-0.413573 -0.0512,-0.169318 -0.0496,-0.351201 -0.0195,-0.52551 0.0301,-0.174309 0.0878,-0.342533 0.14764,-0.508975 z"
       id="path4778-59"
       inkscape:path-effect="#path-effect4780-8"
       inkscape:original-d="m 161.15894,66.748205 c -0.23044,-0.48692 1.91845,-3.002844 2.87737,-4.504289 0.95894,-1.501428 1.52347,-0.700681 2.28489,-1.051048 0.76142,-0.350367 0.48297,0.07183 0.72415,0.107729 0.24117,0.03589 0.0863,1.163002 0.12912,1.744484 0.0429,0.581477 -0.78839,0.08632 -1.18289,0.129464 -0.39451,0.04314 -2.53194,2.903286 -3.79822,4.354905 -1.26632,1.451598 -0.229,0.45296 -0.34379,0.679417 -0.11484,0.226428 -0.46022,-0.973768 -0.69063,-1.460662 z"
       transform="matrix(1.0663147,0,0,1.1653429,-7.6459576,48.354395)" />
    <path
       style="opacity:0.65;fill:#000000;fill-opacity:1;fill-rule:evenodd;stroke-width:0.499999;stroke-dasharray:none"
       id="path5788"
       d="m 170.00053,136.53842 c 7.9e-4,0.0351 0.004,0.0702 0.002,0.10528 -0.008,0.16056 -0.0444,0.31901 -0.0643,0.4782 -0.0132,0.10524 -0.03,0.29208 -0.0399,0.39814 -0.0376,0.50278 -0.0352,1.00745 -0.0376,1.51131 -0.003,0.62065 5.3e-4,1.24131 7.9e-4,1.86197 0.004,0.67131 0.0149,1.34344 0.0494,2.01396 0.0364,0.68084 0.0751,1.36081 0.14038,2.03953 0.0548,0.54776 0.11122,1.09464 0.12126,1.64531 0.0126,0.54606 -0.0256,1.09103 -0.0601,1.63557 -0.0342,0.47414 -0.0462,0.94945 -0.0525,1.42465 -0.006,0.27471 -0.005,0.5512 -0.0264,0.82536 -0.0112,0.14307 -0.0342,0.28184 -0.0552,0.42361 -0.0673,0.37647 -0.14862,0.74974 -0.20664,1.12799 -0.0476,0.32153 -0.0942,0.64387 -0.14978,0.96417 -0.0621,0.30629 -0.0976,0.61699 -0.12833,0.92772 -0.0359,0.32577 -0.035,0.65271 -0.0231,0.97963 0.032,0.42252 0.14179,0.83315 0.23189,1.24569 0.0449,0.26242 0.10225,0.52145 0.16452,0.78018 0.045,0.20357 0.11815,0.3989 0.17899,0.5978 0.0292,0.11012 0.12033,0.17696 0.18798,0.26175 0.0449,0.0563 0.0508,0.0724 0.0854,0.13406 0.0654,0.18026 0.10984,0.36803 0.16443,0.55218 0.0341,0.1238 0.0645,0.24841 0.0932,0.37353 0,0 0.21433,0.10322 0.21433,0.10322 v 0 c -0.0285,-0.12549 -0.0588,-0.25048 -0.0924,-0.37474 -0.0537,-0.18487 -0.0978,-0.37253 -0.15819,-0.55498 -0.0316,-0.0594 -0.0421,-0.0849 -0.0836,-0.13915 -0.0648,-0.0846 -0.16021,-0.14543 -0.19203,-0.25232 -0.0613,-0.19932 -0.13863,-0.39383 -0.18317,-0.59819 -0.0631,-0.25971 -0.12115,-0.51983 -0.17042,-0.78255 -0.0934,-0.41055 -0.20239,-0.81996 -0.23305,-1.24151 -0.0119,-0.32574 -0.009,-0.65144 0.023,-0.97619 0.0299,-0.31013 0.069,-0.61968 0.12833,-0.92569 0.0567,-0.3206 0.10103,-0.644 0.14718,-0.9662 0.0558,-0.37891 0.14223,-0.7514 0.20496,-1.12895 0.0163,-0.11121 0.0478,-0.31407 0.0571,-0.42532 0.0231,-0.27444 0.018,-0.55173 0.0252,-0.82674 0.006,-0.47585 0.0162,-0.95169 0.046,-1.42676 0.0321,-0.54441 0.0784,-1.08867 0.0661,-1.63457 -0.0111,-0.55268 -0.0743,-1.10128 -0.12869,-1.65103 -0.0218,-0.21369 -0.0487,-0.46169 -0.064,-0.67526 -0.0326,-0.45431 -0.0439,-0.91018 -0.0789,-1.36438 -0.0345,-0.66995 -0.0416,-1.34131 -0.0481,-2.01205 -5.3e-4,-0.62004 0.001,-1.24007 0.003,-1.86011 0.004,-0.50202 0.006,-1.00474 0.0444,-1.50557 0.0155,-0.16841 0.0192,-0.22772 0.0416,-0.3958 0.0213,-0.15942 0.0571,-0.31816 0.0715,-0.47843 0.003,-0.0342 0.001,-0.0687 0.002,-0.10313 0,0 -0.21823,-0.11119 -0.21823,-0.11119 z" />
    <path
       style="fill:#000000;stroke-width:0.264583"
       d="m 87.055404,145.54064 c -0.06703,0.40217 -0.133698,0.80219 -0.200009,1.20006"
       id="path448"
       inkscape:path-effect="#path-effect450"
       inkscape:original-d="m 87.055404,145.54064 c -0.06402,0.40267 -0.130694,0.80269 -0.200009,1.20006" />
    <path
       style="opacity:1;fill:url(#linearGradient2448);fill-opacity:1;stroke:url(#linearGradient2454);stroke-width:3.54603;stroke-dasharray:none"
       id="path1806"
       sodipodi:type="arc"
       sodipodi:cx="87.555351"
       sodipodi:cy="159.06906"
       sodipodi:rx="35.176311"
       sodipodi:ry="35.321144"
       sodipodi:start="0"
       sodipodi:end="3.136179"
       sodipodi:arc-type="arc"
       d="M 122.73166,159.06906 A 35.176311,35.321144 0 0 1 87.650567,194.39008 35.176311,35.321144 0 0 1 52.379555,159.26028"
       sodipodi:open="true" />
    <path
       sodipodi:type="star"
       style="fill:#1a1a1a;fill-opacity:1;stroke-width:2.5;stroke-dasharray:none"
       id="path2510-5-4-8"
       inkscape:flatsided="true"
       sodipodi:sides="3"
       sodipodi:cx="127.6065"
       sodipodi:cy="103.20526"
       sodipodi:r1="9.9233332"
       sodipodi:r2="4.9741855"
       sodipodi:arg1="0.5222711"
       sodipodi:arg2="1.5694686"
       inkscape:rounded="0.17"
       inkscape:randomized="0.013"
       d="m 136.16557,108.16996 c -1.43337,2.52743 -15.71481,2.4727 -17.21266,-0.0573 -1.49784,-2.53004 5.71934,-14.931399 8.62311,-14.921981 2.90377,0.0094 10.02291,12.451881 8.58955,14.979311 z"
       inkscape:transform-center-x="-0.5630329"
       inkscape:transform-center-y="-0.24716746"
       transform="matrix(0.05167572,0.07628488,-0.25801217,0.17477858,82.636618,143.02756)" />
    <path
       sodipodi:type="star"
       style="fill:#1a1a1a;fill-opacity:1;stroke-width:2.5;stroke-dasharray:none"
       id="path2510-5-4-87"
       inkscape:flatsided="true"
       sodipodi:sides="3"
       sodipodi:cx="127.6065"
       sodipodi:cy="103.20526"
       sodipodi:r1="9.9233332"
       sodipodi:r2="4.9741855"
       sodipodi:arg1="0.5222711"
       sodipodi:arg2="1.5694686"
       inkscape:rounded="0.17"
       inkscape:randomized="0.013"
       d="m 136.16557,108.16996 c -1.43337,2.52743 -15.71481,2.4727 -17.21266,-0.0573 -1.49784,-2.53004 5.71934,-14.931399 8.62311,-14.921981 2.90377,0.0094 10.02291,12.451881 8.58955,14.979311 z"
       inkscape:transform-center-x="0.5630327"
       inkscape:transform-center-y="-0.24716746"
       transform="matrix(-0.05167572,0.07628488,0.25801217,0.17477858,92.315885,142.03756)" />
    <path
       sodipodi:type="star"
       style="fill:#1a1a1a;fill-opacity:1;stroke-width:2.5;stroke-dasharray:none"
       id="path2510-5-4-87-5"
       inkscape:flatsided="true"
       sodipodi:sides="3"
       sodipodi:cx="127.6065"
       sodipodi:cy="103.20526"
       sodipodi:r1="9.9233332"
       sodipodi:r2="4.9741855"
       sodipodi:arg1="0.5222711"
       sodipodi:arg2="1.5694686"
       inkscape:rounded="0.17"
       inkscape:randomized="0.013"
       d="m 136.16557,108.16996 c -1.43337,2.52743 -15.71481,2.4727 -17.21266,-0.0573 -1.49784,-2.53004 5.71934,-14.931399 8.62311,-14.921981 2.90377,0.0094 10.02291,12.451881 8.58955,14.979311 z"
       inkscape:transform-center-x="0.5630327"
       inkscape:transform-center-y="-0.24716746"
       transform="matrix(-0.05167572,0.07628488,0.25801217,0.17477858,87.219092,149.6747)" />
    <path
       sodipodi:type="star"
       style="fill:#1a1a1a;fill-opacity:1;stroke-width:2.5;stroke-dasharray:none"
       id="path2510-5-4-87-2"
       inkscape:flatsided="true"
       sodipodi:sides="3"
       sodipodi:cx="127.6065"
       sodipodi:cy="103.20526"
       sodipodi:r1="9.9233332"
       sodipodi:r2="4.9741855"
       sodipodi:arg1="0.5222711"
       sodipodi:arg2="1.5694686"
       inkscape:rounded="0.17"
       inkscape:randomized="0.013"
       d="m 136.16557,108.16996 c -1.43337,2.52743 -15.71481,2.4727 -17.21266,-0.0573 -1.49784,-2.53004 5.71934,-14.931399 8.62311,-14.921981 2.90377,0.0094 10.02291,12.451881 8.58955,14.979311 z"
       inkscape:transform-center-x="0.0090757223"
       inkscape:transform-center-y="-0.77100883"
       transform="matrix(-0.09213461,-9.8848261e-4,-0.00334324,0.31161941,99.784399,137.22729)" />
    <path
       sodipodi:type="star"
       style="fill:#1a1a1a;fill-opacity:1;stroke-width:2.5;stroke-dasharray:none"
       id="path2510-5-4-87-2-0"
       inkscape:flatsided="true"
       sodipodi:sides="3"
       sodipodi:cx="127.6065"
       sodipodi:cy="103.20526"
       sodipodi:r1="9.9233332"
       sodipodi:r2="4.9741855"
       sodipodi:arg1="0.5222711"
       sodipodi:arg2="1.5694686"
       inkscape:rounded="0.17"
       inkscape:randomized="0.013"
       d="m 136.16557,108.16996 c -1.43337,2.52743 -15.71481,2.4727 -17.21266,-0.0573 -1.49784,-2.53004 5.71934,-14.931399 8.62311,-14.921981 2.90377,0.0094 10.02291,12.451881 8.58955,14.979311 z"
       inkscape:transform-center-x="0.0090757223"
       inkscape:transform-center-y="-0.77100883"
       transform="matrix(-0.09213461,-9.8848261e-4,-0.00334324,0.31161941,99.37187,154.01542)" />
    <path
       sodipodi:type="star"
       style="fill:#1a1a1a;fill-opacity:1;stroke-width:2.5;stroke-dasharray:none"
       id="path2510-5-4-87-8"
       inkscape:flatsided="true"
       sodipodi:sides="3"
       sodipodi:cx="127.6065"
       sodipodi:cy="103.20526"
       sodipodi:r1="9.9233332"
       sodipodi:r2="4.9741855"
       sodipodi:arg1="0.5222711"
       sodipodi:arg2="1.5694686"
       inkscape:rounded="0.17"
       inkscape:randomized="0.013"
       d="m 136.16557,108.16996 c -1.43337,2.52743 -15.71481,2.4727 -17.21266,-0.0573 -1.49784,-2.53004 5.71934,-14.931399 8.62311,-14.921981 2.90377,0.0094 10.02291,12.451881 8.58955,14.979311 z"
       inkscape:transform-center-x="-1.1804838"
       inkscape:transform-center-y="-2.4790372"
       transform="matrix(-0.08127764,0.04340172,0.14679413,0.27489874,93.155578,149.37054)" />
    <path
       sodipodi:type="star"
       style="fill:#1a1a1a;fill-opacity:1;stroke-width:2.5;stroke-dasharray:none"
       id="path2510-5-4-87-8-7"
       inkscape:flatsided="true"
       sodipodi:sides="3"
       sodipodi:cx="127.6065"
       sodipodi:cy="103.20526"
       sodipodi:r1="9.9233332"
       sodipodi:r2="4.9741855"
       sodipodi:arg1="0.5222711"
       sodipodi:arg2="1.5694686"
       inkscape:rounded="0.17"
       inkscape:randomized="0.013"
       d="m 136.16557,108.16996 c -1.43337,2.52743 -15.71481,2.4727 -17.21266,-0.0573 -1.49784,-2.53004 5.71934,-14.931399 8.62311,-14.921981 2.90377,0.0094 10.02291,12.451881 8.58955,14.979311 z"
       inkscape:transform-center-x="-1.1804838"
       inkscape:transform-center-y="-2.4790372"
       transform="matrix(-0.08127764,0.04340172,0.14679413,0.27489874,89.149204,142.1267)" />
    <path
       sodipodi:type="star"
       style="fill:#1a1a1a;fill-opacity:1;stroke-width:2.5;stroke-dasharray:none"
       id="path2510-5-4-87-8-6"
       inkscape:flatsided="true"
       sodipodi:sides="3"
       sodipodi:cx="127.6065"
       sodipodi:cy="103.20526"
       sodipodi:r1="9.9233332"
       sodipodi:r2="4.9741855"
       sodipodi:arg1="0.5222711"
       sodipodi:arg2="1.5694686"
       inkscape:rounded="0.17"
       inkscape:randomized="0.013"
       d="m 136.16557,108.16996 c -1.43337,2.52743 -15.71481,2.4727 -17.21266,-0.0573 -1.49784,-2.53004 5.71934,-14.931399 8.62311,-14.921981 2.90377,0.0094 10.02291,12.451881 8.58955,14.979311 z"
       inkscape:transform-center-x="1.1804838"
       inkscape:transform-center-y="-2.4790372"
       transform="matrix(0.08127764,0.04340172,-0.14679413,0.27489874,82.16411,149.0567)" />
    <path
       sodipodi:type="star"
       style="fill:#1a1a1a;fill-opacity:1;stroke-width:2.5;stroke-dasharray:none"
       id="path2510-5-4-87-8-6-2"
       inkscape:flatsided="true"
       sodipodi:sides="3"
       sodipodi:cx="127.6065"
       sodipodi:cy="103.20526"
       sodipodi:r1="9.9233332"
       sodipodi:r2="4.9741855"
       sodipodi:arg1="0.5222711"
       sodipodi:arg2="1.5694686"
       inkscape:rounded="0.17"
       inkscape:randomized="0.013"
       d="m 136.16557,108.16996 c -1.43337,2.52743 -15.71481,2.4727 -17.21266,-0.0573 -1.49784,-2.53004 5.71934,-14.931399 8.62311,-14.921981 2.90377,0.0094 10.02291,12.451881 8.58955,14.979311 z"
       inkscape:transform-center-x="-0.6580876"
       inkscape:transform-center-y="-2.6204658"
       transform="matrix(0.08127764,0.04340172,-0.14679413,0.27489874,85.373649,141.70241)" />
    <path
       sodipodi:type="star"
       style="fill:#1a1a1a;fill-opacity:1;stroke-width:2.5;stroke-dasharray:none"
       id="path2510-5-4-0"
       inkscape:flatsided="true"
       sodipodi:sides="3"
       sodipodi:cx="127.6065"
       sodipodi:cy="103.20526"
       sodipodi:r1="9.9233332"
       sodipodi:r2="4.9741855"
       sodipodi:arg1="0.5222711"
       sodipodi:arg2="1.5694686"
       inkscape:rounded="0.17"
       inkscape:randomized="0.013"
       d="m 136.16557,108.16996 c -1.43337,2.52743 -15.71481,2.4727 -17.21266,-0.0573 -1.49784,-2.53004 5.71934,-14.931399 8.62311,-14.921981 2.90377,0.0094 10.02291,12.451881 8.58955,14.979311 z"
       inkscape:transform-center-x="0.94809499"
       inkscape:transform-center-y="-2.6293817"
       transform="matrix(0.0613346,0.06875922,-0.23255873,0.20744703,84.412195,148.64861)" />
    <path
       sodipodi:type="star"
       style="opacity:1;fill:#1a1a1a;fill-opacity:1;stroke-width:2.5;stroke-dasharray:none"
       id="path2510"
       inkscape:flatsided="true"
       sodipodi:sides="3"
       sodipodi:cx="127.6065"
       sodipodi:cy="103.20526"
       sodipodi:r1="9.9233332"
       sodipodi:r2="4.9741855"
       sodipodi:arg1="0.5222711"
       sodipodi:arg2="1.5694686"
       inkscape:rounded="0.17"
       inkscape:randomized="0.013"
       d="m 136.16557,108.16996 c -1.43337,2.52743 -15.71481,2.4727 -17.21266,-0.0573 -1.49784,-2.53004 5.71934,-14.931399 8.62311,-14.921981 2.90377,0.0094 10.02291,12.451881 8.58955,14.979311 z"
       inkscape:transform-center-x="-0.77091084"
       inkscape:transform-center-y="-0.0091409941"
       transform="matrix(-7.3206638e-4,0.092137,-0.31162751,-0.00247601,92.127516,151.27941)" />
    <path
       sodipodi:type="star"
       style="fill:#1a1a1a;fill-opacity:1;stroke-width:2.5;stroke-dasharray:none"
       id="path2510-3"
       inkscape:flatsided="true"
       sodipodi:sides="3"
       sodipodi:cx="127.6065"
       sodipodi:cy="103.20526"
       sodipodi:r1="9.9233332"
       sodipodi:r2="4.9741855"
       sodipodi:arg1="0.5222711"
       sodipodi:arg2="1.5694686"
       inkscape:rounded="0.17"
       inkscape:randomized="0.013"
       d="m 136.16557,108.16996 c -1.43337,2.52743 -15.71481,2.4727 -17.21266,-0.0573 -1.49784,-2.53004 5.71934,-14.931399 8.62311,-14.921981 2.90377,0.0094 10.02291,12.451881 8.58955,14.979311 z"
       inkscape:transform-center-x="0.77090863"
       inkscape:transform-center-y="0.0091453677"
       transform="matrix(7.3206638e-4,-0.092137,0.31162751,0.00247601,83.660321,174.28938)" />
    <path
       sodipodi:type="star"
       style="fill:#1a1a1a;fill-opacity:1;stroke-width:2.5;stroke-dasharray:none"
       id="path2510-8"
       inkscape:flatsided="true"
       sodipodi:sides="3"
       sodipodi:cx="127.6065"
       sodipodi:cy="103.20526"
       sodipodi:r1="9.9233332"
       sodipodi:r2="4.9741855"
       sodipodi:arg1="0.5222711"
       sodipodi:arg2="1.5694686"
       inkscape:rounded="0.17"
       inkscape:randomized="0.013"
       d="m 136.16557,108.16996 c -1.43337,2.52743 -15.71481,2.4727 -17.21266,-0.0573 -1.49784,-2.53004 5.71934,-14.931399 8.62311,-14.921981 2.90377,0.0094 10.02291,12.451881 8.58955,14.979311 z"
       inkscape:transform-center-x="-0.77091084"
       inkscape:transform-center-y="-0.0091409941"
       transform="matrix(-7.3206638e-4,0.092137,-0.31162751,-0.00247601,100.49357,151.01461)" />
    <path
       sodipodi:type="star"
       style="fill:#1a1a1a;fill-opacity:1;stroke-width:2.5;stroke-dasharray:none"
       id="path2510-5"
       inkscape:flatsided="true"
       sodipodi:sides="3"
       sodipodi:cx="127.6065"
       sodipodi:cy="103.20526"
       sodipodi:r1="9.9233332"
       sodipodi:r2="4.9741855"
       sodipodi:arg1="0.5222711"
       sodipodi:arg2="1.5694686"
       inkscape:rounded="0.17"
       inkscape:randomized="0.013"
       d="m 136.16557,108.16996 c -1.43337,2.52743 -15.71481,2.4727 -17.21266,-0.0573 -1.49784,-2.53004 5.71934,-14.931399 8.62311,-14.921981 2.90377,0.0094 10.02291,12.451881 8.58955,14.979311 z"
       inkscape:transform-center-x="0.77091063"
       inkscape:transform-center-y="0.0091413652"
       transform="matrix(7.3206638e-4,-0.092137,0.31162751,0.00247601,74.467459,174.28938)" />
    <path
       sodipodi:type="star"
       style="fill:#1a1a1a;fill-opacity:1;stroke-width:2.5;stroke-dasharray:none"
       id="path2510-5-4"
       inkscape:flatsided="true"
       sodipodi:sides="3"
       sodipodi:cx="127.6065"
       sodipodi:cy="103.20526"
       sodipodi:r1="9.9233332"
       sodipodi:r2="4.9741855"
       sodipodi:arg1="0.5222711"
       sodipodi:arg2="1.5694686"
       inkscape:rounded="0.17"
       inkscape:randomized="0.013"
       d="m 136.16557,108.16996 c -1.43337,2.52743 -15.71481,2.4727 -17.21266,-0.0573 -1.49784,-2.53004 5.71934,-14.931399 8.62311,-14.921981 2.90377,0.0094 10.02291,12.451881 8.58955,14.979311 z"
       inkscape:transform-center-x="-0.5630329"
       inkscape:transform-center-y="-0.24716746"
       transform="matrix(0.05167572,0.07628488,-0.25801217,0.17477858,92.739133,142.77125)" />
    <path
       sodipodi:type="star"
       style="fill:#1a1a1a;fill-opacity:1;stroke-width:2.5;stroke-dasharray:none"
       id="path2510-5-4-3"
       inkscape:flatsided="true"
       sodipodi:sides="3"
       sodipodi:cx="127.6065"
       sodipodi:cy="103.20526"
       sodipodi:r1="9.9233332"
       sodipodi:r2="4.9741855"
       sodipodi:arg1="0.5222711"
       sodipodi:arg2="1.5694686"
       inkscape:rounded="0.17"
       inkscape:randomized="0.013"
       d="m 136.16557,108.16996 c -1.43337,2.52743 -15.71481,2.4727 -17.21266,-0.0573 -1.49784,-2.53004 5.71934,-14.931399 8.62311,-14.921981 2.90377,0.0094 10.02291,12.451881 8.58955,14.979311 z"
       inkscape:transform-center-x="0.5630327"
       inkscape:transform-center-y="-0.24716646"
       transform="matrix(-0.05167572,0.07628488,0.25801217,0.17477858,82.169574,142.60328)" />
    <g
       sodipodi:type="inkscape:box3d"
       id="g649"
       style="opacity:1;fill:#000000;stroke:url(#linearGradient1251)"
       inkscape:perspectiveID="#perspective549"
       inkscape:corner0="1.3504181 : -0.093667805 : 0 : 1"
       inkscape:corner7="0.34630143 : -0.10612145 : 0.54878703 : 1">
      <path
         sodipodi:type="inkscape:box3dside"
         id="path661"
         style="fill:#e9e9ff;fill-rule:evenodd;stroke:url(#linearGradient1253)"
         inkscape:box3dsidetype="11"
         d="m 85.899361,217.01699 36.735899,9.10252 -1.38604,6.4237 -36.255854,-11.32731 z"
         points="122.63526,226.11951 121.24922,232.54321 84.993366,221.2159 85.899361,217.01699 " />
      <path
         sodipodi:type="inkscape:box3dside"
         id="path651"
         style="fill:#353564;fill-rule:evenodd;stroke:url(#linearGradient1255)"
         inkscape:box3dsidetype="6"
         d="m 66.214355,221.04469 -1.117531,5.17928 19.896542,-5.00807 0.905995,-4.19891 z"
         points="65.096824,226.22397 84.993366,221.2159 85.899361,217.01699 66.214355,221.04469 " />
      <path
         sodipodi:type="inkscape:box3dside"
         id="path659"
         style="fill:#afafde;fill-rule:evenodd;stroke:url(#linearGradient1257)"
         inkscape:box3dsidetype="13"
         d="M 65.096824,226.22397 101.29199,245.90379 121.24922,232.54321 84.993366,221.2159 Z"
         points="101.29199,245.90379 121.24922,232.54321 84.993366,221.2159 65.096824,226.22397 " />
      <path
         sodipodi:type="inkscape:box3dside"
         id="path653"
         style="fill:#4d4d9f;fill-rule:evenodd;stroke:url(#linearGradient1259)"
         inkscape:box3dsidetype="5"
         d="m 66.214355,221.04469 37.028655,15.81692 19.39225,-10.7421 -36.735899,-9.10252 z"
         points="103.24301,236.86161 122.63526,226.11951 85.899361,217.01699 66.214355,221.04469 " />
      <path
         sodipodi:type="inkscape:box3dside"
         id="path657"
         style="fill:#d7d7ff;fill-rule:evenodd;stroke:url(#linearGradient1261)"
         inkscape:box3dsidetype="14"
         d="m 103.24301,236.86161 -1.95102,9.04218 19.95723,-13.36058 1.38604,-6.4237 z"
         points="101.29199,245.90379 121.24922,232.54321 122.63526,226.11951 103.24301,236.86161 " />
      <path
         sodipodi:type="inkscape:box3dside"
         id="path655"
         style="fill:#8686bf;fill-rule:evenodd;stroke:url(#linearGradient1263)"
         inkscape:box3dsidetype="3"
         d="m 66.214355,221.04469 37.028655,15.81692 -1.95102,9.04218 -36.195166,-19.67982 z"
         points="103.24301,236.86161 101.29199,245.90379 65.096824,226.22397 66.214355,221.04469 " />
    </g>
  </g>
</svg>
