<?xml version="1.0" encoding="UTF-8" standalone="no"?>
<!-- Created with Inkscape (http://www.inkscape.org/) -->

<svg
   width="210mm"
   height="297mm"
   viewBox="0 0 210 297"
   version="1.1"
   id="svg4899"
   inkscape:version="1.2.1 (9c6d41e410, 2022-07-14)"
   sodipodi:docname="thiệp20.11.svg"
   xmlns:inkscape="http://www.inkscape.org/namespaces/inkscape"
   xmlns:sodipodi="http://sodipodi.sourceforge.net/DTD/sodipodi-0.dtd"
   xmlns:xlink="http://www.w3.org/1999/xlink"
   xmlns="http://www.w3.org/2000/svg"
   xmlns:svg="http://www.w3.org/2000/svg">
  <sodipodi:namedview
     id="namedview4901"
     pagecolor="#ffffff"
     bordercolor="#999999"
     borderopacity="1"
     inkscape:showpageshadow="0"
     inkscape:pageopacity="0"
     inkscape:pagecheckerboard="0"
     inkscape:deskcolor="#d1d1d1"
     inkscape:document-units="mm"
     showgrid="true"
     inkscape:zoom="0.32567287"
     inkscape:cx="-170.41641"
     inkscape:cy="856.68788"
     inkscape:window-width="1366"
     inkscape:window-height="697"
     inkscape:window-x="-8"
     inkscape:window-y="-8"
     inkscape:window-maximized="1"
     inkscape:current-layer="layer1" />
  <defs
     id="defs4896">
    <linearGradient
       id="linearGradient12513"
       inkscape:swatch="solid">
      <stop
         style="stop-color:#000000;stop-opacity:1;"
         offset="0"
         id="stop12511" />
    </linearGradient>
    <linearGradient
       id="linearGradient12503"
       inkscape:swatch="solid">
      <stop
         style="stop-color:#000000;stop-opacity:1;"
         offset="0"
         id="stop12501" />
    </linearGradient>
    <inkscape:path-effect
       effect="bspline"
       id="path-effect12231"
       is_visible="true"
       lpeversion="1"
       weight="33.333333"
       steps="2"
       helper_size="0"
       apply_no_weight="true"
       apply_with_weight="true"
       only_selected="false" />
    <inkscape:path-effect
       effect="bspline"
       id="path-effect12227"
       is_visible="true"
       lpeversion="1"
       weight="33.333333"
       steps="2"
       helper_size="0"
       apply_no_weight="true"
       apply_with_weight="true"
       only_selected="false" />
    <inkscape:path-effect
       effect="spiro"
       id="path-effect12161"
       is_visible="true"
       lpeversion="1" />
    <inkscape:perspective
       sodipodi:type="inkscape:persp3d"
       inkscape:vp_x="164.10895 : 150.12484 : 1"
       inkscape:vp_y="0 : 1000 : 0"
       inkscape:vp_z="374.10895 : 150.12484 : 1"
       inkscape:persp3d-origin="269.10895 : 100.62484 : 1"
       id="perspective11992" />
    <rect
       x="-786.06487"
       y="73.693581"
       width="221.08074"
       height="230.29244"
       id="rect8508" />
    <rect
       x="-816.77053"
       y="132.03433"
       width="350.04451"
       height="319.33885"
       id="rect8502" />
    <rect
       x="-660.17167"
       y="537.34903"
       width="331.62112"
       height="310.12716"
       id="rect8446" />
    <rect
       x="-773.7826"
       y="540.4196"
       width="509.71394"
       height="362.32677"
       id="rect8440" />
    <filter
       inkscape:collect="always"
       style="color-interpolation-filters:sRGB"
       id="filter4908"
       x="-0.27511013"
       y="-0.25902935"
       width="1.5502203"
       height="1.5180587">
      <feGaussianBlur
         inkscape:collect="always"
         stdDeviation="0.76431893"
         id="feGaussianBlur4910" />
    </filter>
    <inkscape:path-effect
       effect="spiro"
       id="path-effect4780"
       is_visible="true"
       lpeversion="1" />
    <filter
       inkscape:collect="always"
       style="color-interpolation-filters:sRGB"
       id="filter4908-9"
       x="-0.27511013"
       y="-0.25902935"
       width="1.5502203"
       height="1.5180587">
      <feGaussianBlur
         inkscape:collect="always"
         stdDeviation="0.76431893"
         id="feGaussianBlur4910-4" />
    </filter>
    <inkscape:path-effect
       effect="spiro"
       id="path-effect4780-9"
       is_visible="true"
       lpeversion="1" />
    <filter
       inkscape:collect="always"
       style="color-interpolation-filters:sRGB"
       id="filter4908-7"
       x="-0.27511013"
       y="-0.25902935"
       width="1.5502203"
       height="1.5180587">
      <feGaussianBlur
         inkscape:collect="always"
         stdDeviation="0.76431893"
         id="feGaussianBlur4910-3" />
    </filter>
    <inkscape:path-effect
       effect="spiro"
       id="path-effect4780-8"
       is_visible="true"
       lpeversion="1" />
    <linearGradient
       inkscape:collect="always"
       xlink:href="#linearGradient12503"
       id="linearGradient12505"
       x1="-300.59561"
       y1="384.68112"
       x2="-68.243327"
       y2="384.68112"
       gradientUnits="userSpaceOnUse" />
    <filter
       inkscape:collect="always"
       style="color-interpolation-filters:sRGB"
       id="filter12507"
       x="-0.020762256"
       y="-0.036088595"
       width="1.0419447"
       height="1.0723453">
      <feGaussianBlur
         inkscape:collect="always"
         stdDeviation="0.45174173"
         id="feGaussianBlur12509" />
    </filter>
    <linearGradient
       inkscape:collect="always"
       xlink:href="#linearGradient12513"
       id="linearGradient12515"
       x1="-299.78318"
       y1="408.64754"
       x2="-68.243325"
       y2="408.64754"
       gradientUnits="userSpaceOnUse"
       gradientTransform="matrix(0.25904683,0,0,0.41733785,90.593584,78.182728)" />
  </defs>
  <g
     inkscape:label="Layer 1"
     inkscape:groupmode="layer"
     id="layer1">
    <rect
       style="fill:#dddd22;stroke-width:2.5069;fill-opacity:1"
       id="rect5440"
       width="208.79208"
       height="295.72107"
       x="0.77507943"
       y="0.24591278" />
    <path
       id="rect11799"
       style="fill:#00ff00;fill-opacity:1;stroke-width:2.75839"
       d="m 45.509978,181.08495 -4.75527,6.70347 9.79217,-0.007 z m 10.01902,0 -4.75578,6.70347 9.79217,-0.007 z m 10.01851,0 -4.75526,6.70347 9.79216,-0.007 z m 10.01903,0 -4.75578,6.70347 9.60716,-0.007 -0.01757,0.0243 h -39.75003 l -4.96403,-6.60063 -4.68344,6.60063 h -0.37155 l -4.96404,-6.60063 -4.68344,6.60063 h -0.37103 l -4.96404,-6.60063 -4.68344,6.60063 h -0.37155 l -4.9640399,-6.60063 -4.68343001,6.60063 h -0.3266 V 296.38024 H 209.72631 V 187.80599 h -19.96519 l -4.96404,-6.60063 -4.68344,6.60063 h -0.37103 l -4.96456,-6.60063 -4.68291,6.60063 h -0.37156 l -4.96404,-6.60063 -4.68343,6.60063 h -39.97172 l -4.96456,-6.60063 -4.68291,6.60063 h -0.37156 l -4.96404,-6.60063 -4.68343,6.60063 h -0.37104 l -4.964552,-6.60063 -4.68292,6.60063 h -0.37155 l -4.96404,-6.60063 -4.57595,6.44973 z m 49.397502,0 -4.75578,6.70347 9.79216,-0.007 z m 10.01851,0 -4.75527,6.70347 9.79217,-0.007 z m 10.01903,0 -4.75579,6.70347 9.79217,-0.007 z m 10.01851,0 -4.75527,6.70347 9.79217,-0.007 z m 39.60068,0 -4.75527,6.70347 9.79217,-0.007 z m 10.01903,0 -4.75579,6.70347 9.79217,-0.007 z" />
    <path
       sodipodi:type="star"
       style="fill:#081069;fill-opacity:0.865285;stroke-width:2.5"
       id="path5494"
       inkscape:flatsided="true"
       sodipodi:sides="3"
       sodipodi:cx="-232.35226"
       sodipodi:cy="8.9366264"
       sodipodi:r1="81.521858"
       sodipodi:r2="40.760929"
       sodipodi:arg1="1.049178"
       sodipodi:arg2="2.0963756"
       inkscape:rounded="0"
       inkscape:randomized="0.013"
       d="M -192.14586,79.087968 -313.78397,7.9239512 -190.687,-60.660833 Z"
       inkscape:transform-center-x="-1.1756449"
       inkscape:transform-center-y="8.4525486"
       transform="matrix(0.18431219,0.171923,-0.09929467,0.31912594,58.460578,52.559981)" />
    <path
       sodipodi:type="star"
       style="fill:#081069;fill-opacity:0.865285;stroke-width:2.5"
       id="path5494-7"
       inkscape:flatsided="true"
       sodipodi:sides="3"
       sodipodi:cx="-232.35226"
       sodipodi:cy="8.9366264"
       sodipodi:r1="81.521858"
       sodipodi:r2="40.760929"
       sodipodi:arg1="1.049178"
       sodipodi:arg2="2.0963756"
       inkscape:rounded="0"
       inkscape:randomized="0.013"
       d="M -192.14586,79.087968 -313.78397,7.9239512 -190.687,-60.660833 Z"
       inkscape:transform-center-x="-1.3144475"
       inkscape:transform-center-y="8.5498623"
       transform="matrix(0.18251443,0.17394942,-0.10260634,0.3180106,238.59067,52.77924)" />
    <path
       sodipodi:type="star"
       style="fill:#fb0000;fill-opacity:1;stroke-width:2.5"
       id="path5494-4"
       inkscape:flatsided="true"
       sodipodi:sides="3"
       sodipodi:cx="-232.35226"
       sodipodi:cy="8.9366264"
       sodipodi:r1="81.521858"
       sodipodi:r2="40.760929"
       sodipodi:arg1="1.049178"
       sodipodi:arg2="2.0963756"
       inkscape:rounded="0"
       inkscape:randomized="0.013"
       d="M -192.14586,79.087968 -313.78397,7.9239512 -190.687,-60.660833 Z"
       inkscape:transform-center-x="-1.1756447"
       inkscape:transform-center-y="8.4525486"
       transform="matrix(0.18431219,0.171923,-0.09929467,0.31912594,88.281289,52.507801)" />
    <path
       sodipodi:type="star"
       style="fill:#00ffff;fill-opacity:1;stroke-width:2.5"
       id="path5494-4-2"
       inkscape:flatsided="true"
       sodipodi:sides="3"
       sodipodi:cx="-232.35226"
       sodipodi:cy="8.9366264"
       sodipodi:r1="81.521858"
       sodipodi:r2="40.760929"
       sodipodi:arg1="1.049178"
       sodipodi:arg2="2.0963756"
       inkscape:rounded="0"
       inkscape:randomized="0.013"
       d="M -192.14586,79.087968 -313.78397,7.9239512 -190.687,-60.660833 Z"
       inkscape:transform-center-x="-1.1756467"
       inkscape:transform-center-y="8.4525486"
       transform="matrix(0.18431219,0.171923,-0.09929467,0.31912594,118.93418,52.149868)" />
    <path
       sodipodi:type="star"
       style="fill:#081069;fill-opacity:0.865285;stroke-width:2.5"
       id="path5494-1"
       inkscape:flatsided="true"
       sodipodi:sides="3"
       sodipodi:cx="-232.35226"
       sodipodi:cy="8.9366264"
       sodipodi:r1="81.521858"
       sodipodi:r2="40.760929"
       sodipodi:arg1="1.049178"
       sodipodi:arg2="2.0963756"
       inkscape:rounded="0"
       inkscape:randomized="0.013"
       d="M -192.14586,79.087968 -313.78397,7.9239512 -190.687,-60.660833 Z"
       inkscape:transform-center-x="-1.1756436"
       inkscape:transform-center-y="8.4525486"
       transform="matrix(0.18431219,0.171923,-0.09929467,0.31912594,149.03012,52.10901)" />
    <path
       sodipodi:type="star"
       style="fill:#fb0000;fill-opacity:1;stroke-width:2.5"
       id="path5494-4-7"
       inkscape:flatsided="true"
       sodipodi:sides="3"
       sodipodi:cx="-232.35226"
       sodipodi:cy="8.9366264"
       sodipodi:r1="81.521858"
       sodipodi:r2="40.760929"
       sodipodi:arg1="1.049178"
       sodipodi:arg2="2.0963756"
       inkscape:rounded="0"
       inkscape:randomized="0.013"
       d="M -192.14586,79.087968 -313.78397,7.9239512 -190.687,-60.660833 Z"
       inkscape:transform-center-x="-1.1756495"
       inkscape:transform-center-y="8.4525486"
       transform="matrix(0.18431219,0.171923,-0.09929467,0.31912594,178.85084,52.05683)" />
    <path
       sodipodi:type="star"
       style="fill:#00ffff;fill-opacity:1;stroke-width:2.5"
       id="path5494-4-2-5"
       inkscape:flatsided="true"
       sodipodi:sides="3"
       sodipodi:cx="-232.35226"
       sodipodi:cy="8.9366264"
       sodipodi:r1="81.521858"
       sodipodi:r2="40.760929"
       sodipodi:arg1="1.049178"
       sodipodi:arg2="2.0963756"
       inkscape:rounded="0"
       inkscape:randomized="0.013"
       d="M -192.14586,79.087968 -313.78397,7.9239512 -190.687,-60.660833 Z"
       inkscape:transform-center-x="-1.1756492"
       inkscape:transform-center-y="8.4525486"
       transform="matrix(0.18431219,0.171923,-0.09929467,0.31912594,209.50372,51.698897)" />
    <text
       xml:space="preserve"
       transform="scale(0.26458333)"
       id="text8438"
       style="line-height:0.1;white-space:pre;shape-inside:url(#rect8440);fill:#eb0000;fill-opacity:1;stroke-width:9.44882" />
    <text
       xml:space="preserve"
       transform="scale(0.26458333)"
       id="text8500"
       style="font-size:192.00000242px;white-space:pre;shape-inside:url(#rect8502);fill:#eb0000;fill-opacity:1;stroke-width:9.44882" />
    <text
       xml:space="preserve"
       transform="scale(0.26458333)"
       id="text8506"
       style="fill:#eb0000;stroke-width:9.4488189;fill-opacity:1;font-size:192px;white-space:pre;shape-inside:url(#rect8508)" />
    <text
       xml:space="preserve"
       style="font-size:25.4px;fill:#eb0000;fill-opacity:1;stroke-width:2.5"
       x="34.934082"
       y="117.80098"
       id="text8563"><tspan
         sodipodi:role="line"
         id="tspan8561"
         style="stroke-width:2.5;font-size:25.4px"
         x="34.934082"
         y="117.80098" /></text>
    <text
       xml:space="preserve"
       style="font-size:14.11111111px;fill:#eb0000;fill-opacity:1;stroke-width:2.5"
       x="37.371346"
       y="87.741425"
       id="text8567"><tspan
         sodipodi:role="line"
         style="stroke-width:2.5;font-size:14.11111111px"
         x="37.371346"
         y="87.741425"
         id="tspan8571" /></text>
    <text
       xml:space="preserve"
       style="font-style:normal;font-variant:normal;font-weight:bold;font-stretch:normal;font-size:11.2889px;line-height:13.5466px;font-family:Blazed;-inkscape-font-specification:'Blazed Bold';text-align:end;text-anchor:end;white-space:pre;inline-size:177.011;fill:#ff0000;fill-opacity:1;stroke-width:2.5"
       x="187.43004"
       y="71.197319"
       id="text8579"
       transform="matrix(0.99347101,0,0,1.7744941,13.869931,-52.139126)"><tspan
         x="187.43004"
         y="71.197319"
         id="tspan16228">CHÚC MỪNG<tspan
   y="71.197319"
   id="tspan16230"> </tspan></tspan><tspan
         x="187.43004"
         y="84.743916"
         id="tspan16232">NGÀY NHÀ GIÁO<tspan
   y="84.743916"
   id="tspan16234"> </tspan></tspan><tspan
         x="187.43004"
         y="98.366599"
         id="tspan16236">VIỆT NAM 20 - 11</tspan></text>
    <path
       style="opacity:0.87;fill:#808000;fill-opacity:1;fill-rule:evenodd;stroke-width:0.775543;stroke-dasharray:none"
       id="path3943"
       sodipodi:type="arc"
       sodipodi:cx="42.480335"
       sodipodi:cy="172.02776"
       sodipodi:rx="14.064291"
       sodipodi:ry="14.545258"
       sodipodi:start="0"
       sodipodi:end="6.1791829"
       sodipodi:open="true"
       sodipodi:arc-type="arc"
       d="M 56.544626,172.02776 A 14.064291,14.545258 0 0 1 42.845974,186.5681 14.064291,14.545258 0 0 1 28.435056,172.78379 14.064291,14.545258 0 0 1 41.384407,157.52672 14.064291,14.545258 0 0 1 56.468632,170.51774" />
    <path
       id="path4051"
       style="opacity:0.87;fill:#808000;fill-rule:evenodd;stroke-width:0.0731545"
       inkscape:transform-center-x="64.501658"
       inkscape:transform-center-y="35.283593"
       d="m 41.885515,188.40608 0.72646,-2.48513 1.14245,2.48497 z"
       sodipodi:nodetypes="cccc" />
    <rect
       style="opacity:0.87;fill:#000000;fill-opacity:1;fill-rule:evenodd;stroke-width:0.846465;stroke-dasharray:none"
       id="rect4285"
       width="2.0718689"
       height="0.6182254"
       x="41.708958"
       y="186.62831"
       ry="0.28101233" />
    <ellipse
       id="path4395"
       style="fill:#808000;stroke:#000000;stroke-width:0.447921"
       cx="42.029575"
       cy="196.90572"
       rx="0.0028367103"
       ry="0.0025008759" />
    <path
       style="opacity:0.87;fill:#000000;fill-opacity:1;fill-rule:evenodd;stroke-width:0.846465;stroke-dasharray:none"
       id="path4458"
       d="m 42.129055,188.30852 c -0.11179,0.27805 -0.20708,0.56093 -0.29671,0.84519 -0.11215,0.37922 -0.2356,0.75578 -0.34785,1.13492 -0.1181,0.43926 -0.21478,0.8813 -0.28861,1.32794 -0.0729,0.45554 -0.10494,0.91498 -0.12117,1.37446 0.005,0.45021 0.12567,0.89661 0.27664,1.32473 0.0294,0.068 0.0586,0.13607 0.088,0.20412 0.0754,0.17456 0.0815,0.20364 0.17633,0.36668 0.077,0.13257 0.16895,0.25792 0.24761,0.38989 0.13902,0.25337 0.31578,0.48729 0.49264,0.72078 0.25048,0.30477 0.4795,0.62219 0.71596,0.9353 0.2232,0.24756 0.4319,0.5083 0.68872,0.73011 0.18667,0.12605 0.38111,0.24245 0.56476,0.37254 0.17706,0.13988 0.37873,0.24735 0.58067,0.35591 0.23394,0.12509 0.17453,0.0947 0.58053,0.29146 0.0379,0.0183 0.15254,0.071 0.11576,0.051 -0.52841,-0.28709 -0.14442,-0.055 -0.0204,0.0383 0.19969,0.17884 0.38298,0.3708 0.55791,0.56854 0.17417,0.20932 0.28558,0.44754 0.35554,0.69798 0.0716,0.43414 -0.0674,0.64978 -0.33576,1.00233 -0.28516,0.3161 -0.64835,0.56368 -0.99325,0.82516 -0.26778,0.20302 -0.307,0.2406 -0.56353,0.45408 -0.3074,0.2755 -0.6311,0.54083 -0.87445,0.86496 -0.15254,0.20324 -0.20407,0.30507 -0.32902,0.51881 -0.0829,0.1725 -0.13811,0.2565 -0.17218,0.4393 -0.0626,0.33482 0.0838,0.67915 0.18598,0.99556 0.0472,0.10745 0.0882,0.21718 0.1419,0.32223 0.11701,0.22892 0.32312,0.54548 0.46518,0.75495 0.36758,0.54201 0.77524,1.0611 1.17816,1.58281 0.73886,0.91921 1.45492,1.85718 2.27717,2.72148 0.37567,0.39491 0.52157,0.51661 0.91162,0.87226 0.34054,0.32435 0.75298,0.58683 1.08614,0.91759 0.0824,0.0817 0.36776,0.41082 0.43626,0.489 0.23409,0.3266 0.64263,0.76663 0.59035,1.18246 -0.009,0.0674 -0.0404,0.13066 -0.0606,0.19607 -0.0422,0.063 -0.0755,0.1313 -0.12676,0.18879 -0.30354,0.34133 -0.87583,0.54847 -1.31685,0.71281 -0.3083,0.1127 -0.62363,0.20943 -0.93736,0.30957 0,0 0.35143,0.20874 0.35143,0.20874 v 0 c 0.31208,-0.10396 0.6266,-0.2021 0.93584,-0.31257 0.45072,-0.16931 1.02552,-0.38129 1.3369,-0.72964 0.0537,-0.0601 0.0891,-0.13114 0.13379,-0.19684 0.0222,-0.0688 0.0566,-0.13543 0.0665,-0.20645 0.0606,-0.42812 -0.35155,-0.87008 -0.59007,-1.20782 -0.0218,-0.0251 -0.39351,-0.45555 -0.42884,-0.49127 -0.33563,-0.33939 -0.76345,-0.59933 -1.11239,-0.92694 -0.40126,-0.35881 -0.5464,-0.47667 -0.93218,-0.87635 -0.82941,-0.85931 -1.55309,-1.79345 -2.28066,-2.7198 -0.39169,-0.51801 -0.79034,-1.03337 -1.15051,-1.56926 -0.12729,-0.18945 -0.3491,-0.53567 -0.45645,-0.74559 -0.053,-0.10348 -0.0934,-0.21175 -0.13992,-0.31761 -0.0984,-0.30853 -0.24104,-0.648 -0.18762,-0.97448 0.0298,-0.18209 0.0815,-0.26209 0.16101,-0.43503 0.12549,-0.21792 0.16822,-0.308 0.32501,-0.51394 0.24379,-0.3202 0.565,-0.58509 0.86683,-0.86124 0.27076,-0.22504 0.27986,-0.23803 0.5631,-0.45166 0.34906,-0.26327 0.71573,-0.51388 1.00763,-0.82971 0.13271,-0.17166 0.2761,-0.34756 0.34078,-0.55118 0.0487,-0.15355 0.035,-0.31799 0.022,-0.47429 -0.0674,-0.25453 -0.17759,-0.49722 -0.348,-0.71288 -0.17399,-0.2006 -0.36067,-0.39168 -0.55638,-0.57617 -0.26169,-0.20491 -0.3586,-0.24142 -0.72645,-0.42489 -0.0379,-0.0189 -0.15272,-0.0733 -0.11666,-0.052 0.0883,0.052 0.18205,0.0963 0.27323,0.14434 0.0334,0.0175 -0.0665,-0.0354 -0.0997,-0.0531 -0.20072,-0.10905 -0.40668,-0.20957 -0.58193,-0.35087 -0.18355,-0.13225 -0.37559,-0.25287 -0.5704,-0.37123 -0.26415,-0.2154 -0.46738,-0.48003 -0.69602,-0.72366 -0.23795,-0.31186 -0.46571,-0.62968 -0.71492,-0.93482 -0.17525,-0.23245 -0.35224,-0.46452 -0.49165,-0.71582 -0.0781,-0.13416 -0.17291,-0.25822 -0.25361,-0.39106 -0.10494,-0.17253 -0.0979,-0.17767 -0.1803,-0.36489 -0.0297,-0.0676 -0.0599,-0.13495 -0.0898,-0.20235 -0.15669,-0.42319 -0.27134,-0.86504 -0.27967,-1.31187 0.0126,-0.45927 0.0384,-0.91876 0.11089,-1.37417 0.0745,-0.44461 0.18068,-0.8829 0.29349,-1.32101 0.11125,-0.37903 0.2362,-0.75489 0.3488,-1.13363 0.0909,-0.2825 0.18499,-0.56479 0.30656,-0.83831 0,0 -0.38905,-0.1889 -0.38905,-0.1889 z" />
    <path
       style="opacity:0.65;mix-blend-mode:normal;fill:#e3dbdb;fill-opacity:1;fill-rule:evenodd;stroke-width:0.273339;stroke-dasharray:none;filter:url(#filter4908)"
       d="m 161.15894,66.748205 c 0.61007,-1.695714 1.50517,-3.336083 2.87737,-4.504289 0.64981,-0.55321 1.43289,-1.002198 2.28489,-1.051048 0.24601,-0.01411 0.49931,0.0069 0.72415,0.107729 0.16519,0.07408 0.31141,0.190716 0.41844,0.33673 0.10703,0.146014 0.17439,0.32119 0.19041,0.501521 0.016,0.18033 -0.0196,0.36528 -0.10364,0.525649 -0.084,0.160369 -0.21634,0.295403 -0.37609,0.380584 -0.17696,0.09436 -0.38091,0.126112 -0.58134,0.133163 -0.20042,0.0071 -0.40107,-0.0091 -0.60155,-0.0037 -0.52094,0.01404 -1.03369,0.175655 -1.48324,0.439235 -0.44955,0.263579 -0.83694,0.627091 -1.15149,1.042572 -0.62912,0.830961 -0.96083,1.85074 -1.16349,2.873098 -0.0255,0.128632 -0.0495,0.25873 -0.0998,0.379796 -0.0504,0.121066 -0.13029,0.234223 -0.24395,0.299621 -0.0767,0.04411 -0.1662,0.06465 -0.25459,0.06142 -0.0884,-0.0032 -0.17544,-0.02988 -0.25208,-0.07402 -0.15328,-0.08829 -0.26092,-0.244255 -0.31211,-0.413573 -0.0512,-0.169318 -0.0496,-0.351201 -0.0195,-0.52551 0.0301,-0.174309 0.0878,-0.342533 0.14764,-0.508975 z"
       id="path4778"
       inkscape:path-effect="#path-effect4780"
       inkscape:original-d="m 161.15894,66.748205 c -0.23044,-0.48692 1.91845,-3.002844 2.87737,-4.504289 0.95894,-1.501428 1.52347,-0.700681 2.28489,-1.051048 0.76142,-0.350367 0.48297,0.07183 0.72415,0.107729 0.24117,0.03589 0.0863,1.163002 0.12912,1.744484 0.0429,0.581477 -0.78839,0.08632 -1.18289,0.129464 -0.39451,0.04314 -2.53194,2.903286 -3.79822,4.354905 -1.26632,1.451598 -0.229,0.45296 -0.34379,0.679417 -0.11484,0.226428 -0.46022,-0.973768 -0.69063,-1.460662 z"
       transform="matrix(1.9225891,0,0,1.8523879,-277.20555,47.634691)" />
    <path
       style="opacity:0.87;fill:#ff6600;fill-opacity:1;fill-rule:evenodd;stroke-width:0.775543;stroke-dasharray:none"
       id="path3943-4"
       sodipodi:type="arc"
       sodipodi:cx="17.725035"
       sodipodi:cy="168.69621"
       sodipodi:rx="14.064291"
       sodipodi:ry="14.545258"
       sodipodi:start="0"
       sodipodi:end="6.1791829"
       sodipodi:open="true"
       sodipodi:arc-type="arc"
       d="M 31.789326,168.69621 A 14.064291,14.545258 0 0 1 18.090674,183.23655 14.064291,14.545258 0 0 1 3.6797552,169.45224 14.064291,14.545258 0 0 1 16.629107,154.19518 14.064291,14.545258 0 0 1 31.713331,167.1862" />
    <path
       id="path4051-7"
       style="opacity:0.87;fill:#ff7f2a;fill-rule:evenodd;stroke-width:0.0731545"
       inkscape:transform-center-x="64.501657"
       inkscape:transform-center-y="35.283591"
       d="m 17.130405,185.07452 0.72645,-2.48512 1.14245,2.48496 z"
       sodipodi:nodetypes="cccc" />
    <rect
       style="opacity:0.87;fill:#000000;fill-opacity:1;fill-rule:evenodd;stroke-width:0.846465;stroke-dasharray:none"
       id="rect4285-7"
       width="2.0718689"
       height="0.6182254"
       x="16.95365"
       y="183.29677"
       ry="0.28101233" />
    <ellipse
       id="path4395-9"
       style="fill:#808000;stroke:#000000;stroke-width:0.447921"
       cx="17.274282"
       cy="193.57417"
       rx="0.0028367103"
       ry="0.0025008759" />
    <path
       style="opacity:0.87;fill:#000000;fill-opacity:1;fill-rule:evenodd;stroke-width:0.846465;stroke-dasharray:none"
       id="path4458-4"
       d="m 17.373935,184.97697 c -0.11179,0.27805 -0.20708,0.56093 -0.2967,0.84519 -0.11215,0.37922 -0.23561,0.75577 -0.34786,1.13492 -0.1181,0.43926 -0.21478,0.8813 -0.28861,1.32793 -0.0728,0.45554 -0.10494,0.91499 -0.12116,1.37447 0.005,0.45021 0.12567,0.89661 0.27663,1.32473 0.0294,0.068 0.0586,0.13606 0.088,0.20411 0.0754,0.17457 0.0815,0.20364 0.17634,0.36668 0.077,0.13257 0.16894,0.25793 0.24761,0.38989 0.13901,0.25338 0.31578,0.4873 0.49264,0.72079 0.25047,0.30477 0.47949,0.62219 0.71596,0.9353 0.22319,0.24756 0.43189,0.5083 0.68872,0.7301 0.18666,0.12621 0.3811,0.24246 0.56476,0.37255 0.17705,0.13988 0.37872,0.24735 0.58066,0.3559 0.23394,0.1251 0.17453,0.0947 0.58054,0.29147 0.0379,0.0183 0.15253,0.0711 0.11575,0.051 -0.52841,-0.28709 -0.14442,-0.055 -0.0204,0.0383 0.19968,0.17884 0.38298,0.3708 0.55791,0.56854 0.17417,0.20931 0.28558,0.44754 0.35553,0.69798 0.0716,0.43414 -0.0674,0.64978 -0.33575,1.00233 -0.28517,0.3161 -0.64835,0.56367 -0.99325,0.82516 -0.26779,0.20302 -0.307,0.24059 -0.56354,0.45407 -0.3074,0.27551 -0.63109,0.54084 -0.87445,0.86496 -0.15253,0.20325 -0.20406,0.30507 -0.32901,0.51882 -0.0829,0.1725 -0.13811,0.25649 -0.17219,0.43929 -0.0626,0.33483 0.0838,0.67916 0.18598,0.99556 0.0472,0.10746 0.0882,0.21719 0.1419,0.32224 0.11702,0.22891 0.32312,0.54548 0.46518,0.75495 0.36758,0.54201 0.77524,1.0611 1.17817,1.58281 0.73886,0.91921 1.45491,1.85718 2.27716,2.72148 0.37568,0.39491 0.52158,0.5166 0.91163,0.87225 0.34053,0.32435 0.75297,0.58684 1.08614,0.9176 0.0824,0.0817 0.36776,0.41082 0.43625,0.48899 0.23409,0.32661 0.64264,0.76663 0.59035,1.18246 -0.009,0.0674 -0.0404,0.13067 -0.0606,0.19608 -0.0422,0.0629 -0.0755,0.1313 -0.12675,0.18879 -0.30354,0.34133 -0.87584,0.54846 -1.31686,0.71281 -0.3083,0.1127 -0.62363,0.20942 -0.93735,0.30957 0,0 0.35142,0.20874 0.35142,0.20874 v 0 c 0.31209,-0.10396 0.62661,-0.2021 0.93584,-0.31257 0.45072,-0.16931 1.02553,-0.38129 1.33691,-0.72965 0.0537,-0.0601 0.0891,-0.13114 0.13378,-0.19683 0.0222,-0.0688 0.0566,-0.13543 0.0665,-0.20645 0.0606,-0.42812 -0.35155,-0.87008 -0.59007,-1.20782 -0.0218,-0.0251 -0.39351,-0.45555 -0.42883,-0.49127 -0.33563,-0.33939 -0.76346,-0.59933 -1.11239,-0.92694 -0.40127,-0.35881 -0.54641,-0.47668 -0.93218,-0.87636 -0.82941,-0.8593 -1.55309,-1.79344 -2.28067,-2.71979 -0.39168,-0.51801 -0.79033,-1.03338 -1.1505,-1.56927 -0.1273,-0.18944 -0.34911,-0.53566 -0.45646,-0.74558 -0.053,-0.10348 -0.0934,-0.21175 -0.13991,-0.31761 -0.0984,-0.30854 -0.24105,-0.648 -0.18762,-0.97449 0.0298,-0.18208 0.0815,-0.26208 0.16101,-0.43503 0.12549,-0.21791 0.16822,-0.30799 0.32501,-0.51394 0.24379,-0.3202 0.56499,-0.58508 0.86682,-0.86124 0.27076,-0.22503 0.27986,-0.23802 0.5631,-0.45166 0.34907,-0.26326 0.71573,-0.51387 1.00764,-0.8297 0.1327,-0.17166 0.2761,-0.34756 0.34077,-0.55118 0.0487,-0.15356 0.035,-0.318 0.022,-0.4743 -0.0674,-0.25452 -0.1776,-0.49721 -0.348,-0.71287 -0.174,-0.2006 -0.36068,-0.39168 -0.55638,-0.57617 -0.26169,-0.20491 -0.3586,-0.24142 -0.72646,-0.42489 -0.0379,-0.0189 -0.15271,-0.0733 -0.11665,-0.052 0.0884,0.052 0.18205,0.0963 0.27323,0.14433 0.0333,0.0175 -0.0665,-0.0354 -0.0997,-0.0531 -0.20071,-0.10904 -0.40667,-0.20957 -0.58193,-0.35086 -0.18354,-0.13225 -0.37558,-0.25287 -0.5704,-0.37123 -0.26414,-0.2154 -0.46738,-0.48003 -0.69602,-0.72366 -0.23794,-0.31186 -0.4657,-0.62968 -0.71492,-0.93483 -0.17525,-0.23244 -0.35223,-0.46452 -0.49164,-0.71581 -0.0781,-0.13416 -0.17291,-0.25822 -0.25362,-0.39106 -0.10493,-0.17254 -0.0979,-0.17767 -0.1803,-0.36489 -0.0298,-0.0676 -0.0599,-0.13495 -0.0898,-0.20235 -0.15668,-0.42319 -0.27134,-0.86504 -0.27967,-1.31187 0.0126,-0.45927 0.0384,-0.91877 0.11089,-1.37418 0.0745,-0.4446 0.18068,-0.88289 0.29349,-1.32101 0.11125,-0.37903 0.2362,-0.75488 0.3488,-1.13363 0.0909,-0.28249 0.18499,-0.56478 0.30657,-0.8383 0,0 -0.38906,-0.1889 -0.38906,-0.1889 z" />
    <path
       style="opacity:0.65;mix-blend-mode:normal;fill:#e3dbdb;fill-opacity:1;fill-rule:evenodd;stroke-width:0.273339;stroke-dasharray:none;filter:url(#filter4908-9)"
       d="m 161.15894,66.748205 c 0.61007,-1.695714 1.50517,-3.336083 2.87737,-4.504289 0.64981,-0.55321 1.43289,-1.002198 2.28489,-1.051048 0.24601,-0.01411 0.49931,0.0069 0.72415,0.107729 0.16519,0.07408 0.31141,0.190716 0.41844,0.33673 0.10703,0.146014 0.17439,0.32119 0.19041,0.501521 0.016,0.18033 -0.0196,0.36528 -0.10364,0.525649 -0.084,0.160369 -0.21634,0.295403 -0.37609,0.380584 -0.17696,0.09436 -0.38091,0.126112 -0.58134,0.133163 -0.20042,0.0071 -0.40107,-0.0091 -0.60155,-0.0037 -0.52094,0.01404 -1.03369,0.175655 -1.48324,0.439235 -0.44955,0.263579 -0.83694,0.627091 -1.15149,1.042572 -0.62912,0.830961 -0.96083,1.85074 -1.16349,2.873098 -0.0255,0.128632 -0.0495,0.25873 -0.0998,0.379796 -0.0504,0.121066 -0.13029,0.234223 -0.24395,0.299621 -0.0767,0.04411 -0.1662,0.06465 -0.25459,0.06142 -0.0884,-0.0032 -0.17544,-0.02988 -0.25208,-0.07402 -0.15328,-0.08829 -0.26092,-0.244255 -0.31211,-0.413573 -0.0512,-0.169318 -0.0496,-0.351201 -0.0195,-0.52551 0.0301,-0.174309 0.0878,-0.342533 0.14764,-0.508975 z"
       id="path4778-5"
       inkscape:path-effect="#path-effect4780-9"
       inkscape:original-d="m 161.15894,66.748205 c -0.23044,-0.48692 1.91845,-3.002844 2.87737,-4.504289 0.95894,-1.501428 1.52347,-0.700681 2.28489,-1.051048 0.76142,-0.350367 0.48297,0.07183 0.72415,0.107729 0.24117,0.03589 0.0863,1.163002 0.12912,1.744484 0.0429,0.581477 -0.78839,0.08632 -1.18289,0.129464 -0.39451,0.04314 -2.53194,2.903286 -3.79822,4.354905 -1.26632,1.451598 -0.229,0.45296 -0.34379,0.679417 -0.11484,0.226428 -0.46022,-0.973768 -0.69063,-1.460662 z"
       transform="matrix(1.9225891,0,0,1.8523879,-301.96072,44.303141)" />
    <path
       style="opacity:0.87;fill:#0000ff;fill-opacity:1;fill-rule:evenodd;stroke-width:0.775543;stroke-dasharray:none"
       id="path3943-9"
       sodipodi:type="arc"
       sodipodi:cx="29.49795"
       sodipodi:cy="141.85751"
       sodipodi:rx="14.064291"
       sodipodi:ry="14.545258"
       sodipodi:start="0"
       sodipodi:end="6.1791829"
       sodipodi:open="true"
       sodipodi:arc-type="arc"
       d="M 43.562241,141.85751 A 14.064291,14.545258 0 0 1 29.863588,156.39785 14.064291,14.545258 0 0 1 15.45267,142.61354 14.064291,14.545258 0 0 1 28.402022,127.35648 14.064291,14.545258 0 0 1 43.486246,140.3475" />
    <path
       id="path4051-77"
       style="opacity:0.87;fill:#0000ff;fill-rule:evenodd;stroke-width:0.0731545"
       inkscape:transform-center-x="64.501657"
       inkscape:transform-center-y="35.283593"
       d="m 28.903125,158.23584 0.72646,-2.48513 1.14245,2.48497 z"
       sodipodi:nodetypes="cccc" />
    <rect
       style="opacity:0.87;fill:#000000;fill-opacity:1;fill-rule:evenodd;stroke-width:0.846465;stroke-dasharray:none"
       id="rect4285-0"
       width="2.0718689"
       height="0.6182254"
       x="28.726549"
       y="156.45807"
       ry="0.28101233" />
    <ellipse
       id="path4395-8"
       style="fill:#808000;stroke:#000000;stroke-width:0.447921"
       cx="29.04719"
       cy="166.73547"
       rx="0.0028367103"
       ry="0.0025008759" />
    <path
       style="opacity:0.65;mix-blend-mode:normal;fill:#e3dbdb;fill-opacity:1;fill-rule:evenodd;stroke-width:0.273339;stroke-dasharray:none;filter:url(#filter4908-7)"
       d="m 161.15894,66.748205 c 0.61007,-1.695714 1.50517,-3.336083 2.87737,-4.504289 0.64981,-0.55321 1.43289,-1.002198 2.28489,-1.051048 0.24601,-0.01411 0.49931,0.0069 0.72415,0.107729 0.16519,0.07408 0.31141,0.190716 0.41844,0.33673 0.10703,0.146014 0.17439,0.32119 0.19041,0.501521 0.016,0.18033 -0.0196,0.36528 -0.10364,0.525649 -0.084,0.160369 -0.21634,0.295403 -0.37609,0.380584 -0.17696,0.09436 -0.38091,0.126112 -0.58134,0.133163 -0.20042,0.0071 -0.40107,-0.0091 -0.60155,-0.0037 -0.52094,0.01404 -1.03369,0.175655 -1.48324,0.439235 -0.44955,0.263579 -0.83694,0.627091 -1.15149,1.042572 -0.62912,0.830961 -0.96083,1.85074 -1.16349,2.873098 -0.0255,0.128632 -0.0495,0.25873 -0.0998,0.379796 -0.0504,0.121066 -0.13029,0.234223 -0.24395,0.299621 -0.0767,0.04411 -0.1662,0.06465 -0.25459,0.06142 -0.0884,-0.0032 -0.17544,-0.02988 -0.25208,-0.07402 -0.15328,-0.08829 -0.26092,-0.244255 -0.31211,-0.413573 -0.0512,-0.169318 -0.0496,-0.351201 -0.0195,-0.52551 0.0301,-0.174309 0.0878,-0.342533 0.14764,-0.508975 z"
       id="path4778-59"
       inkscape:path-effect="#path-effect4780-8"
       inkscape:original-d="m 161.15894,66.748205 c -0.23044,-0.48692 1.91845,-3.002844 2.87737,-4.504289 0.95894,-1.501428 1.52347,-0.700681 2.28489,-1.051048 0.76142,-0.350367 0.48297,0.07183 0.72415,0.107729 0.24117,0.03589 0.0863,1.163002 0.12912,1.744484 0.0429,0.581477 -0.78839,0.08632 -1.18289,0.129464 -0.39451,0.04314 -2.53194,2.903286 -3.79822,4.354905 -1.26632,1.451598 -0.229,0.45296 -0.34379,0.679417 -0.11484,0.226428 -0.46022,-0.973768 -0.69063,-1.460662 z"
       transform="matrix(1.9225891,0,0,1.8523879,-290.18795,17.464446)" />
    <path
       style="opacity:0.65;fill:#000000;fill-opacity:1;fill-rule:evenodd;stroke-width:0.846465;stroke-dasharray:none"
       id="path5788"
       d="m 30.112615,157.63865 c 10e-4,0.0558 0.007,0.11159 0.004,0.16735 -0.0144,0.25522 -0.08,0.50709 -0.11593,0.76013 -0.0238,0.16729 -0.0541,0.46428 -0.0719,0.63287 -0.0678,0.7992 -0.0635,1.60141 -0.0678,2.40233 -0.005,0.98656 9.5e-4,1.97314 0.001,2.95972 0.007,1.06709 0.0269,2.13548 0.0891,3.20132 0.0656,1.08224 0.13541,2.16309 0.25311,3.24196 0.0988,0.8707 0.20053,1.74 0.21863,2.61533 0.0227,0.868 -0.0462,1.73426 -0.10836,2.59984 -0.0617,0.75368 -0.0833,1.50922 -0.0947,2.26458 -0.0108,0.43667 -0.009,0.87616 -0.0476,1.31196 -0.0202,0.22742 -0.0617,0.448 -0.0995,0.67336 -0.12134,0.59842 -0.26796,1.19176 -0.37257,1.79301 -0.0858,0.51109 -0.16985,1.02347 -0.27006,1.53261 -0.11197,0.48687 -0.17597,0.98074 -0.23138,1.47467 -0.0647,0.51783 -0.0631,1.03752 -0.0416,1.55719 0.0577,0.67162 0.25565,1.32434 0.4181,1.9801 0.081,0.41713 0.18436,0.82888 0.29664,1.24015 0.0811,0.32358 0.21302,0.63407 0.32272,0.95024 0.0526,0.17504 0.21696,0.28129 0.33893,0.41607 0.081,0.0895 0.0916,0.11508 0.15398,0.21309 0.11792,0.28654 0.19804,0.58501 0.29647,0.87773 0.0615,0.19679 0.11629,0.39486 0.16804,0.59375 0,0 0.38644,0.16408 0.38644,0.16408 v 0 c -0.0514,-0.19948 -0.10601,-0.39816 -0.1666,-0.59568 -0.0968,-0.29386 -0.17633,-0.59216 -0.28522,-0.88217 -0.057,-0.0944 -0.0759,-0.13496 -0.15073,-0.22119 -0.11683,-0.13448 -0.28886,-0.23117 -0.34623,-0.40108 -0.11053,-0.31683 -0.24996,-0.62602 -0.33026,-0.95086 -0.11377,-0.41283 -0.21844,-0.82631 -0.30727,-1.24392 -0.16841,-0.65259 -0.36492,-1.30338 -0.4202,-1.97346 -0.0215,-0.51778 -0.0162,-1.0355 0.0415,-1.55172 0.0539,-0.49297 0.12441,-0.98502 0.23138,-1.47144 0.10223,-0.50961 0.18216,-1.02368 0.26537,-1.53584 0.10061,-0.6023 0.25645,-1.1944 0.36955,-1.79454 0.0294,-0.17677 0.0862,-0.49923 0.10295,-0.67607 0.0416,-0.43624 0.0325,-0.87701 0.0454,-1.31416 0.0108,-0.75639 0.0292,-1.51277 0.0829,-2.26792 0.0579,-0.86538 0.14135,-1.73051 0.11918,-2.59826 -0.02,-0.87852 -0.13397,-1.75055 -0.23203,-2.62442 -0.0393,-0.33967 -0.0878,-0.73388 -0.1154,-1.07337 -0.0588,-0.72215 -0.0791,-1.44679 -0.14226,-2.16877 -0.0622,-1.06493 -0.075,-2.1321 -0.0867,-3.19828 -9.6e-4,-0.98559 0.002,-1.97117 0.005,-2.95677 0.007,-0.79799 0.0108,-1.5971 0.08,-2.3932 0.028,-0.2677 0.0346,-0.36197 0.075,-0.62915 0.0384,-0.2534 0.10295,-0.50573 0.12891,-0.76049 0.005,-0.0544 0.002,-0.10921 0.004,-0.16393 0,0 -0.39347,-0.17675 -0.39347,-0.17675 z" />
    <path
       id="path11227"
       style="fill:#ff5555;fill-opacity:1;stroke-width:3.63561"
       inkscape:transform-center-x="-1.5568779e-06"
       inkscape:transform-center-y="-38.900612"
       d="m 144.80129,197.12207 a 4.736465,16.797991 0 0 0 -0.30489,0.0496 4.736465,16.797991 0 0 0 -4.36097,17.62012 4.736465,16.797991 0 0 0 4.85345,15.91892 4.736465,16.797991 0 0 0 4.61315,-16.79226 l -0.0253,-1.74408 a 4.736465,16.797991 0 0 0 -4.77542,-15.05231 z m 29.97233,12.02407 a 4.7263134,16.834071 43.780181 0 0 -14.32781,9.96891 4.7263134,16.834071 43.780181 0 0 -7.52098,14.85594 4.7263134,16.834071 43.780181 0 0 14.97789,-8.9855 l 1.19011,-1.28003 a 4.7263134,16.834071 43.780181 0 0 6.72155,-14.34848 4.7263134,16.834071 43.780181 0 0 -1.04076,-0.21084 z m -61.12443,1.46296 a 16.83769,4.7252973 43.478967 0 0 -1.78439,0.79065 16.83769,4.7252973 43.478967 0 0 9.80199,15.29985 16.83769,4.7252973 43.478967 0 0 14.92312,7.48739 16.83769,4.7252973 43.478967 0 0 -9.02581,-14.91123 l -1.28571,-1.18442 a 16.83769,4.7252973 43.478967 0 0 -12.6292,-7.48224 z m 2.79776,26.8857 -1.75183,0.0253 a 16.873655,4.7152252 0 0 0 -15.070389,5.05706 16.873655,4.7152252 0 0 0 17.699169,4.34134 16.873655,4.7152252 0 0 0 15.99075,-4.83123 16.873655,4.7152252 0 0 0 -16.8677,-4.59249 z m 57.04613,0 a 16.873655,4.7152252 0 0 0 -1.08572,0.006 16.873655,4.7152252 0 0 0 -15.99076,4.83123 16.873655,4.7152252 0 0 0 16.86771,4.593 l 1.75183,-0.0258 a 16.873655,4.7152252 0 0 0 15.07091,-5.05706 16.873655,4.7152252 0 0 0 -16.61397,-4.34754 z m -18.78748,12.15378 a 16.83769,4.7252973 43.478967 0 0 -1.56425,0.58395 16.83769,4.7252973 43.478967 0 0 9.02632,14.91123 l 1.28571,1.18442 a 16.83769,4.7252973 43.478967 0 0 14.41308,6.69159 16.83769,4.7252973 43.478967 0 0 -9.80199,-15.29985 16.83769,4.7252973 43.478967 0 0 -13.35887,-8.07134 z m -19.22932,0.45579 a 4.7263134,16.834071 43.780181 0 0 -13.64775,9.32966 l -1.19011,1.28003 a 4.7263134,16.834071 43.780181 0 0 -6.72155,14.34847 4.7263134,16.834071 43.780181 0 0 15.36909,-9.75806 4.7263134,16.834071 43.780181 0 0 7.52047,-14.85594 4.7263134,16.834071 43.780181 0 0 -1.33015,-0.34416 z m 9.2661,3.60443 a 4.736465,16.797991 0 0 0 -4.61316,16.79226 l 0.0258,1.74408 a 4.736465,16.797991 0 0 0 5.0798,15.0027 4.736465,16.797991 0 0 0 4.36097,-17.6196 4.736465,16.797991 0 0 0 -4.85345,-15.91944 z" />
    <path
       style="fill:#552200;fill-opacity:1;stroke-width:2.5711"
       id="path11425"
       sodipodi:type="arc"
       sodipodi:cx="144.66261"
       sodipodi:cy="242.00668"
       sodipodi:rx="10.764572"
       sodipodi:ry="11.170783"
       sodipodi:start="0"
       sodipodi:end="6.1791829"
       sodipodi:open="true"
       sodipodi:arc-type="arc"
       d="m 155.42719,242.00668 a 10.764572,11.170783 0 0 1 -10.48472,11.16701 10.764572,11.170783 0 0 1 -11.02988,-10.58637 10.764572,11.170783 0 0 1 9.91122,-11.71745 10.764572,11.170783 0 0 1 11.54521,9.97712" />
    <text
       xml:space="preserve"
       style="font-style:normal;font-variant:normal;font-weight:bold;font-stretch:normal;font-size:14.8167px;line-height:0;font-family:'.Vn3DH';-inkscape-font-specification:'.Vn3DH Bold';text-align:end;letter-spacing:0.0370417px;word-spacing:3.96875px;text-anchor:end;fill:#552200;fill-opacity:1;stroke-width:2.5"
       id="text11483"
       transform="matrix(0.44686135,0.94951265,-0.95656319,0.44356766,301.2204,0.61465014)"><textPath
         xlink:href="#path11538"
         startOffset="100%"
         id="textPath11540"
         style="font-style:normal;font-variant:normal;font-weight:bold;font-stretch:normal;font-size:14.8167px;font-family:'.Vn3DH';-inkscape-font-specification:'.Vn3DH Bold';fill:#190055;fill-opacity:1"><tspan
           id="tspan11481"
           style="font-style:normal;font-variant:normal;font-weight:bold;font-stretch:normal;font-size:14.8167px;font-family:'.Vn3DH';-inkscape-font-specification:'.Vn3DH Bold';fill:#190055;fill-opacity:1;stroke-width:2.5"
           dx="0 0.22">*HAPPY TEACHER'S DAY*</tspan></textPath></text>
    <path
       style="fill:#552200;fill-opacity:0;stroke-width:2.5"
       id="path11538"
       sodipodi:type="arc"
       sodipodi:cx="145.05319"
       sodipodi:cy="230.36169"
       sodipodi:rx="45.670212"
       sodipodi:ry="44.80851"
       sodipodi:start="0"
       sodipodi:end="6.1791829"
       sodipodi:open="true"
       sodipodi:arc-type="arc"
       d="m 190.7234,230.36169 a 45.670212,44.80851 0 0 1 -44.48289,44.79337 45.670212,44.80851 0 0 1 -46.795795,-42.46432 45.670212,44.80851 0 0 1 42.049725,-47.00131 45.670212,44.80851 0 0 1 48.98219,40.02047" />
    <path
       style="fill:#ff01d9;fill-opacity:1;stroke:url(#linearGradient12505);stroke-width:2.929;stroke-dasharray:none;filter:url(#filter12507)"
       d="m -300.59561,349.91084 153.66231,-0.57001 78.689973,70.68059 -156.760333,-0.57001 z"
       id="path12497"
       transform="matrix(0.25904683,0,0,0.41733785,90.867744,78.182728)" />
    <path
       style="fill:#f2f2f2;fill-opacity:1;stroke:url(#linearGradient12515);stroke-width:0.822005"
       d="m 12.935694,224.31494 19.1514,29.15863 41.24918,-0.33905 0.42091,18.98702 -41.88054,1.01716 -19.1514,-27.80242 z"
       id="path12499"
       sodipodi:nodetypes="ccccccc" />
    <text
       xml:space="preserve"
       style="font-style:normal;font-variant:normal;font-weight:bold;font-stretch:normal;font-size:14.8167px;font-family:'.Vn3DH';-inkscape-font-specification:'.Vn3DH Bold';text-align:end;text-anchor:end;fill:#ff0000;fill-opacity:1;stroke-width:2.92899;stroke-dasharray:none"
       x="-265.6615"
       y="367.21408"
       id="text15524"><tspan
         sodipodi:role="line"
         id="tspan15522"
         style="stroke-width:2.929;fill:#ff0000"
         x="-265.6615"
         y="367.21408" /></text>
    <text
       xml:space="preserve"
       style="font-style:normal;font-variant:normal;font-weight:bold;font-stretch:normal;font-size:5.87544px;font-family:'.Vn3DH';-inkscape-font-specification:'.Vn3DH Bold';text-align:center;text-anchor:middle;fill:#000000;fill-opacity:1;stroke-width:1.16146;stroke-dasharray:none"
       x="-100.85184"
       y="165.48999"
       id="text15730"
       transform="matrix(0.6353545,-0.35341159,0.6403102,1.2177563,0,0)"
       inkscape:transform-center-x="5.5093437"
       inkscape:transform-center-y="-3.0908334"><tspan
         sodipodi:role="line"
         id="tspan15728"
         style="text-align:center;text-anchor:middle;stroke-width:1.16147"
         x="-100.85184"
         y="165.48999">GIÁO </tspan><tspan
         sodipodi:role="line"
         style="text-align:center;text-anchor:middle;stroke-width:1.16147"
         x="-100.85184"
         y="172.90901"
         id="tspan15782">ÁN</tspan></text>
  </g>
</svg>
